<svg width="429" height="271" viewBox="0 0 429 271" fill="none" xmlns="http://www.w3.org/2000/svg">
<path d="M12.0735 237.052C32.6541 270.716 80.7686 266.733 114.344 235.024C147.92 203.315 195.549 256.222 249.294 255.002C303.039 253.781 310.345 204.462 310.345 204.462L265.347 214.149C265.347 214.149 350.742 277.684 401.311 237.508C451.881 197.332 426.537 131.797 362.517 121.61C298.496 111.423 268.978 103.97 263.024 68.9237C257.071 33.8779 230.463 -12.0462 154.241 4.874C78.0196 21.7942 76.329 116.318 76.329 116.318C76.329 116.318 -36.3056 158.082 12.0735 237.052Z" fill="#FFD164"/>
<path d="M82.043 266.254H35.3435C34.5245 266.254 33.8605 266.918 33.8605 267.737V268.559C33.8605 269.378 34.5245 270.042 35.3435 270.042H82.043C82.862 270.042 83.5259 269.378 83.5259 268.559V267.737C83.5259 266.918 82.862 266.254 82.043 266.254Z" fill="#ADBEC4"/>
<path d="M377.909 266.254H365.13C364.311 266.254 363.647 266.918 363.647 267.737V268.559C363.647 269.378 364.311 270.042 365.13 270.042H377.909C378.728 270.042 379.392 269.378 379.392 268.559V267.737C379.392 266.918 378.728 266.254 377.909 266.254Z" fill="#ADBEC4"/>
<path d="M169.917 266.254H123.218C122.399 266.254 121.735 266.918 121.735 267.737V268.559C121.735 269.378 122.399 270.042 123.218 270.042H169.917C170.736 270.042 171.4 269.378 171.4 268.559V267.737C171.4 266.918 170.736 266.254 169.917 266.254Z" fill="#ADBEC4"/>
<path d="M238.479 266.254H191.78C190.961 266.254 190.297 266.918 190.297 267.737V268.559C190.297 269.378 190.961 270.042 191.78 270.042H238.479C239.298 270.042 239.962 269.378 239.962 268.559V267.737C239.962 266.918 239.298 266.254 238.479 266.254Z" fill="#ADBEC4"/>
<path d="M322.439 266.254H258.783C257.964 266.254 257.3 266.918 257.3 267.737V268.559C257.3 269.378 257.964 270.042 258.783 270.042H322.439C323.258 270.042 323.921 269.378 323.921 268.559V267.737C323.921 266.918 323.258 266.254 322.439 266.254Z" fill="#ADBEC4"/>
<path d="M97.6943 57.966C97.6943 57.966 92.7625 54.5764 85.5512 57.1948C78.34 59.8133 76.7214 69.4989 78.4925 77.3796C80.2635 85.2603 70.3406 112.173 70.3406 112.173C70.3406 112.173 75.5012 119.435 93.5421 116.656C93.5421 116.656 106.99 92.2174 105.99 74.668C104.99 57.1186 97.6943 57.966 97.6943 57.966Z" fill="#0E3944"/>
<path d="M103.389 88.294C110.168 86.1247 114.32 91.7683 118.201 102.276C122.082 112.783 123.396 113.834 123.396 113.834L138.386 123.469L137.14 129.079C137.14 129.079 122.87 123.494 119.421 119.944C115.972 116.393 106.075 98.3694 106.075 98.3694L103.389 88.294Z" fill="#EF6E4B"/>
<path d="M70.3491 156.161C70.3491 156.161 67.4086 171.058 67.8916 193.446C67.8916 193.446 56.2993 210.538 65.8664 259.305H70.8829C70.8829 259.305 74.9843 217.783 78.1196 206.572C81.2549 195.361 92.8387 191.879 93.4658 157.695L70.3491 156.161Z" fill="#FF8B66"/>
<path d="M47.4187 199.963C44.5037 190.353 37.0043 174.262 17.7602 152.45C17.3169 152.28 16.8382 152.223 16.3676 152.285C15.897 152.348 15.4494 152.526 15.0655 152.806C13.4215 153.806 13.4215 154.983 13.4215 154.983C13.4215 154.983 23.0648 175.99 29.2084 191.379C30.2174 193.912 31.9633 196.084 34.2203 197.615C36.4773 199.145 39.1415 199.963 41.8684 199.963H47.4187Z" fill="#FF8B66"/>
<path d="M82.4159 218.546C82.4159 218.546 82.4836 225.715 77.7722 225.834C71.1371 226.011 70.8914 218.783 63.3666 219.012C55.8418 219.241 40.3092 221.131 35.4028 209.369C32.8606 203.293 36.3434 195.497 28.1068 189.616C19.8701 183.735 23.8698 177.151 28.1068 173.617C32.3437 170.084 26.2595 166.245 30.6574 164.466C31.6331 164.075 32.7179 164.054 33.708 164.406C34.2765 164.618 34.8149 164.903 35.3096 165.254C36.8871 166.403 38.2328 167.841 39.2754 169.491C51.7489 135.349 73.942 130.85 73.942 130.85L95.8893 138.417C96.4232 191.497 82.4159 218.546 82.4159 218.546Z" fill="#164353"/>
<path d="M103.389 88.294C99.3482 89.4033 95.1138 89.6144 90.983 88.9126C83.7039 87.811 81.3312 83.2351 76.213 86.1755C68.5272 90.5989 72.1201 105.809 74.0522 113.716C74.7725 116.665 75.6876 124.41 73.9505 130.807C73.9505 130.807 84.1869 138.764 95.8978 138.375L102.287 124.469C102.287 124.469 116.184 107.843 103.389 88.294Z" fill="#CFD8DC"/>
<path d="M90.3813 75.5323C90.811 80.1911 90.1943 84.887 88.5764 89.2769C88.5764 89.2769 92.3727 94.8867 95.9995 91.192C96.4898 86.2563 97.9897 81.4741 100.406 77.1424C103.135 72.1428 90.3813 75.5323 90.3813 75.5323Z" fill="#EF6E4B"/>
<path d="M84.5597 75.7781C84.5597 75.7781 81.3566 73.7528 81.7125 76.8797C82.1362 80.5065 85.6698 81.2098 86.0511 79.9472C86.4325 78.6846 84.5597 75.7781 84.5597 75.7781Z" fill="#FF8B66"/>
<path d="M102.948 71.8546C102.948 71.8546 104.982 68.6515 105.99 71.6343C107.16 75.0917 104.295 77.244 103.38 76.2526C102.465 75.2611 102.948 71.8546 102.948 71.8546Z" fill="#FF8B66"/>
<path d="M96.33 86.6162C90.5169 87.9127 86.3817 84.8536 83.831 73.4647C82.5176 67.5838 84.6784 63.296 91.2118 61.8555C97.7452 60.4149 101.279 63.3892 102.592 69.2616C105.329 81.4979 102.338 85.2688 96.33 86.6162Z" fill="#FF8B66"/>
<path d="M101.575 73.7952C101.636 74.1126 101.586 74.4413 101.433 74.7259C101.279 75.0105 101.033 75.2337 100.735 75.358C100.436 75.4823 100.104 75.5001 99.7945 75.4084C99.4846 75.3167 99.2158 75.1211 99.0332 74.8544C98.9817 74.54 99.0379 74.2175 99.1926 73.939C99.3472 73.6604 99.5914 73.4423 99.8855 73.3197C100.18 73.1972 100.506 73.1775 100.813 73.2638C101.12 73.3501 101.388 73.5373 101.575 73.7952Z" fill="#DB614D"/>
<path d="M89.6864 76.7525C89.8009 77.0239 89.828 77.3242 89.7637 77.6116C89.6995 77.899 89.5472 78.1592 89.328 78.3559C89.1089 78.5526 88.8338 78.6761 88.5412 78.7091C88.2485 78.7421 87.9529 78.6829 87.6954 78.5399C87.438 78.3969 87.2316 78.1771 87.105 77.9112C86.9784 77.6453 86.9379 77.3465 86.9891 77.0565C87.0404 76.7665 87.1809 76.4998 87.391 76.2934C87.601 76.087 87.8703 75.9513 88.1611 75.9051C88.4756 75.8207 88.8106 75.862 89.0953 76.0201C89.38 76.1782 89.5919 76.4409 89.6864 76.7525Z" fill="#DB614D"/>
<path d="M97.5248 68.4481C97.4673 68.4472 97.4114 68.4295 97.3638 68.3973C96.6219 67.998 95.758 67.8892 94.9403 68.0922C94.903 68.1024 94.8641 68.1049 94.8258 68.0997C94.7875 68.0944 94.7506 68.0815 94.7174 68.0618C94.6842 68.042 94.6553 68.0158 94.6325 67.9846C94.6096 67.9534 94.5933 67.918 94.5844 67.8804C94.5742 67.8426 94.5715 67.8031 94.5767 67.7642C94.5818 67.7254 94.5946 67.6879 94.6143 67.654C94.634 67.6202 94.6602 67.5905 94.6915 67.5668C94.7227 67.5431 94.7583 67.5259 94.7962 67.516C95.7767 67.2729 96.8129 67.4123 97.6943 67.9058C97.7265 67.9271 97.7541 67.9547 97.7754 67.9868C97.7968 68.019 97.8115 68.0551 97.8186 68.093C97.8257 68.131 97.8251 68.17 97.8169 68.2077C97.8086 68.2454 97.7929 68.2811 97.7706 68.3126C97.7459 68.3554 97.7099 68.3907 97.6666 68.4146C97.6233 68.4385 97.5742 68.4501 97.5248 68.4481Z" fill="#0E3944"/>
<path d="M86.585 70.8971C86.531 70.899 86.4778 70.8842 86.4325 70.8547C86.3651 70.8143 86.3165 70.7487 86.2975 70.6724C86.2784 70.5961 86.2904 70.5154 86.3308 70.448C86.9194 69.6273 87.7978 69.0609 88.7882 68.8634C88.8655 68.8508 88.9447 68.8684 89.0094 68.9125C89.074 68.9567 89.1193 69.0241 89.1357 69.1006C89.143 69.139 89.1427 69.1785 89.1347 69.2168C89.1268 69.2551 89.1113 69.2914 89.0893 69.3237C89.0672 69.356 89.039 69.3836 89.0063 69.405C88.9735 69.4263 88.9368 69.4409 88.8984 69.4481C88.0739 69.6126 87.34 70.0777 86.8392 70.7531C86.8135 70.7975 86.7765 70.8344 86.7318 70.8597C86.6871 70.885 86.6364 70.8979 86.585 70.8971Z" fill="#0E3944"/>
<path d="M97.779 71.6428C97.94 72.3631 97.779 73.0156 97.3469 73.1088C96.9147 73.202 96.4995 72.6851 96.33 71.9648C96.1605 71.2445 96.33 70.5836 96.7622 70.4904C97.1943 70.3972 97.6011 70.9141 97.779 71.6428Z" fill="#1A4850"/>
<path d="M89.7034 73.38C89.8644 74.1002 89.7034 74.7612 89.2712 74.8459C88.839 74.9307 88.4238 74.4223 88.2543 73.702C88.0849 72.9817 88.2544 72.3207 88.6865 72.236C89.1187 72.1512 89.5424 72.6512 89.7034 73.38Z" fill="#1A4850"/>
<path d="M92.3134 80.2184C92.3134 80.2184 96.0503 79.9133 97.6943 78.5236C97.6943 78.5236 97.2452 81.4386 95.2114 81.642C94.6426 81.7089 94.0665 81.6102 93.5524 81.3577C93.0383 81.1051 92.6081 80.7095 92.3134 80.2184Z" fill="#1A4850"/>
<path d="M95.7453 71.7191C95.7453 71.7191 95.8809 69.8209 96.5927 69.7955C97.3045 69.7701 98.1943 71.1683 98.1943 71.1683L99.101 70.3887L98.1011 70.7531C98.1011 70.7531 97.2113 69.2871 96.5164 69.4396C95.5419 69.6514 95.7453 71.7191 95.7453 71.7191Z" fill="#1A4850"/>
<path d="M90.1525 73.202C90.1525 73.202 89.2204 71.5073 88.551 71.8208C87.8815 72.1343 87.7036 73.7528 87.7036 73.7528L86.5427 73.4308L87.6104 73.3376C87.6104 73.3376 87.7883 71.6428 88.4578 71.4734C89.4577 71.253 90.1525 73.202 90.1525 73.202Z" fill="#1A4850"/>
<path d="M94.2115 76.8458L93.915 76.278C94.0833 76.2182 94.2242 76.0994 94.3114 75.9435C94.3987 75.7877 94.4265 75.6054 94.3895 75.4306C94.3671 75.2835 94.3034 75.1457 94.2059 75.0333C94.1085 74.9208 93.9811 74.8382 93.8387 74.7951C93.72 74.7951 93.6184 74.8883 93.5421 75.0917L92.9404 74.8713C92.9912 74.6602 93.1134 74.4731 93.2864 74.3418C93.4594 74.2105 93.6725 74.1431 93.8895 74.1511C94.1716 74.204 94.4309 74.3419 94.6323 74.5464C94.8338 74.7509 94.9679 75.0121 95.0166 75.295C95.0833 75.6068 95.0395 75.9321 94.8926 76.215C94.7457 76.498 94.5049 76.721 94.2115 76.8458Z" fill="#DB614D"/>
<path d="M85.0174 77.8288C85.0174 77.8288 83.2294 71.2276 84.2886 66.567C84.2886 66.567 89.373 59.5252 99.1095 63.0079C101.117 66.4927 102.578 70.2652 103.44 74.1935C103.44 74.1935 103.804 71.8462 102.838 66.6263C101.872 61.4064 97.2283 58.1524 90.8813 59.2116C84.5344 60.2709 77.7383 66.5754 85.0174 77.8288Z" fill="#0E3944"/>
<path d="M95.2538 61.5419C95.2538 61.5419 95.6436 63.2367 93.9658 67.694C93.7954 67.5208 93.5923 67.3832 93.3682 67.2893C93.1442 67.1954 92.9037 67.1471 92.6608 67.1471C92.4178 67.1471 92.1773 67.1954 91.9533 67.2893C91.7292 67.3832 91.5261 67.5208 91.3558 67.694C89.9407 68.9566 87.1188 68.5414 86.0935 69.2193C85.7842 69.5037 85.5378 69.8496 85.37 70.2349C85.2022 70.6201 85.1167 71.0362 85.119 71.4564C84.6196 70.0882 84.6196 68.5876 85.119 67.2194C83.9656 68.7793 83.3823 70.6876 83.4666 72.6258C83.4666 72.6258 80.8821 72.2106 81.0007 67.9482C81.1193 63.6858 87.1782 56.7966 93.9658 57.2457C100.753 57.6948 102.38 68.4481 102.38 68.4481C102.149 68.2926 101.888 68.1881 101.613 68.1413C101.338 68.0946 101.057 68.1067 100.787 68.177C100.56 66.3691 99.984 64.6224 99.0925 63.0333C99.5058 64.4385 99.5058 65.9329 99.0925 67.3381C98.051 66.7912 96.8751 66.5531 95.7029 66.6517C95.7029 66.6517 96.652 64.8298 95.2538 61.5419Z" fill="#0E3944"/>
<path d="M74.4843 87.5398C77.7976 84.9299 80.3652 88.2431 81.0007 92.8275C81.6363 97.4119 75.6537 124.461 71.0439 123.469C69.2644 123.079 68.5017 115.995 68.5017 115.995C69.8693 109.71 70.8625 103.349 71.4761 96.9458C72.0438 91.6836 72.7641 88.8956 74.4843 87.5398Z" fill="#FF8B66"/>
<path d="M64.8665 119.647C60.4177 115.41 52.4438 101.335 50.41 94.1664L53.7996 92.8021C53.7996 92.8021 63.9683 107.352 68.6035 111.021C73.2387 114.69 74.8741 118.775 72.8404 122.274C70.8067 125.774 65.8071 120.537 64.8665 119.647Z" fill="#FF8B66"/>
<path d="M51.8421 84.8112C51.6133 89.4125 55.3588 90.5057 53.6979 94.0308C53.5655 94.3356 53.3714 94.6096 53.1278 94.8357C52.8843 95.0617 52.5965 95.2349 52.2827 95.3442C51.7713 95.5077 51.2241 95.5236 50.704 95.3902C50.1839 95.2568 49.712 94.9795 49.3423 94.5901C47.523 92.8453 45.5067 91.3182 43.3343 90.0396C41.6395 89.0736 42.614 88.8109 42.614 88.8109L42.1395 88.6075C40.9447 88.116 39.9956 87.9211 40.86 87.3957C41.7243 86.8704 45.2749 88.0482 45.2749 88.0482C40.7922 85.0654 39.5719 85.7942 40.3939 85.1586C41.5124 84.3113 45.7663 86.2857 45.9019 86.345C43.5292 84.1079 41.8175 83.5995 42.7496 83.2605C43.6818 82.9216 48.3848 86.3111 50.0965 87.5906C50.4863 87.8703 50.7151 88.0567 50.7151 88.0567C50.6219 84.2604 51.8421 84.8112 51.8421 84.8112Z" fill="#FF8B66"/>
<path d="M50.0541 87.5568C50.4439 87.8364 50.6727 88.0228 50.6727 88.0228C50.4398 88.5145 50.3391 89.0584 50.3807 89.6008C50.4224 90.1432 50.6048 90.6654 50.91 91.1158C50.359 90.728 49.9682 90.1528 49.8107 89.4977C49.6532 88.8427 49.7397 88.1526 50.0541 87.5568Z" fill="#EF6E4B"/>
<path d="M46.1307 90.1922C45.7325 89.9803 43.4699 88.7092 42.5717 88.777L42.0972 88.5736C42.6988 87.7771 45.6816 89.8956 46.1307 90.1922Z" fill="#EF6E4B"/>
<path d="M63.892 158.475C63.892 158.654 63.8388 158.829 63.7392 158.978C63.6395 159.128 63.4979 159.244 63.3322 159.312C63.1666 159.381 62.9842 159.399 62.8084 159.364C62.6325 159.329 62.4709 159.243 62.3441 159.116C62.2173 158.989 62.131 158.827 62.096 158.652C62.061 158.476 62.079 158.293 62.1476 158.128C62.2162 157.962 62.3324 157.82 62.4815 157.721C62.6306 157.621 62.806 157.568 62.9853 157.568C63.2258 157.568 63.4564 157.663 63.6264 157.834C63.7965 158.004 63.892 158.234 63.892 158.475Z" fill="#6097B2"/>
<path d="M80.0263 164.694C80.0385 164.82 80.0242 164.947 79.9844 165.067C79.9446 165.187 79.8802 165.298 79.7952 165.391C79.7102 165.485 79.6065 165.56 79.4909 165.611C79.3753 165.662 79.2502 165.689 79.1238 165.689C78.9973 165.689 78.8723 165.662 78.7567 165.611C78.641 165.56 78.5374 165.485 78.4524 165.391C78.3674 165.298 78.3029 165.187 78.2632 165.067C78.2234 164.947 78.2091 164.82 78.2213 164.694C78.2431 164.47 78.3475 164.262 78.5144 164.111C78.6812 163.959 78.8985 163.875 79.1238 163.875C79.3491 163.875 79.5663 163.959 79.7332 164.111C79.9 164.262 80.0045 164.47 80.0263 164.694Z" fill="#6097B2"/>
<path d="M93.7709 168.033C93.7725 168.213 93.7206 168.39 93.6216 168.54C93.5226 168.69 93.3811 168.808 93.2151 168.878C93.049 168.947 92.866 168.966 92.6894 168.931C92.5127 168.897 92.3504 168.81 92.2231 168.683C92.0958 168.555 92.0092 168.393 91.9745 168.216C91.9398 168.04 91.9585 167.857 92.0281 167.691C92.0978 167.525 92.2153 167.383 92.3657 167.284C92.5161 167.185 92.6926 167.133 92.8726 167.135C93.1108 167.135 93.3394 167.23 93.5078 167.398C93.6763 167.567 93.7709 167.795 93.7709 168.033Z" fill="#6097B2"/>
<path d="M72.654 146.671C72.6556 146.85 72.6039 147.026 72.5053 147.177C72.4067 147.327 72.2657 147.444 72.1001 147.514C71.9346 147.584 71.7521 147.603 71.5756 147.569C71.3992 147.535 71.2368 147.45 71.1092 147.323C70.9815 147.197 70.8943 147.035 70.8586 146.859C70.823 146.683 70.8404 146.5 70.9088 146.334C70.9772 146.168 71.0934 146.026 71.2427 145.926C71.3919 145.826 71.5676 145.772 71.7472 145.772C71.9863 145.772 72.2156 145.867 72.3854 146.035C72.5552 146.203 72.6517 146.432 72.654 146.671Z" fill="#6097B2"/>
<path d="M74.7894 156.161C75.2901 156.161 75.6961 155.755 75.6961 155.255C75.6961 154.754 75.2901 154.348 74.7894 154.348C74.2886 154.348 73.8827 154.754 73.8827 155.255C73.8827 155.755 74.2886 156.161 74.7894 156.161Z" fill="#6097B2"/>
<path d="M89.9746 160.161C89.9746 160.341 89.9212 160.516 89.8212 160.666C89.7212 160.815 89.5791 160.931 89.4129 160.999C89.2467 161.068 89.0639 161.085 88.8878 161.05C88.7117 161.014 88.5502 160.927 88.4238 160.799C88.2973 160.671 88.2116 160.509 88.1776 160.333C88.1435 160.156 88.1627 159.974 88.2326 159.808C88.3026 159.643 88.4201 159.502 88.5703 159.403C88.7205 159.304 88.8967 159.253 89.0764 159.254C89.3154 159.256 89.5438 159.353 89.712 159.523C89.8802 159.693 89.9746 159.922 89.9746 160.161Z" fill="#6097B2"/>
<path d="M91.9659 145.332C91.9659 145.511 91.9127 145.686 91.8131 145.835C91.7135 145.985 91.5719 146.101 91.4062 146.169C91.2405 146.238 91.0582 146.256 90.8823 146.221C90.7064 146.186 90.5449 146.1 90.4181 145.973C90.2913 145.846 90.2049 145.684 90.1699 145.509C90.1349 145.333 90.1529 145.15 90.2215 144.985C90.2902 144.819 90.4064 144.677 90.5555 144.578C90.7046 144.478 90.8799 144.425 91.0592 144.425C91.2997 144.425 91.5303 144.521 91.7004 144.691C91.8704 144.861 91.9659 145.091 91.9659 145.332Z" fill="#6097B2"/>
<path d="M81.6871 143.154C82.1879 143.154 82.5938 142.748 82.5938 142.247C82.5938 141.746 82.1879 141.34 81.6871 141.34C81.1864 141.34 80.7804 141.746 80.7804 142.247C80.7804 142.748 81.1864 143.154 81.6871 143.154Z" fill="#6097B2"/>
<path d="M55.8926 176.117C55.8926 176.297 55.8394 176.472 55.7398 176.621C55.6402 176.77 55.4985 176.886 55.3329 176.955C55.1672 177.024 54.9849 177.042 54.809 177.007C54.6331 176.972 54.4716 176.885 54.3448 176.758C54.218 176.632 54.1316 176.47 54.0966 176.294C54.0616 176.118 54.0796 175.936 54.1482 175.77C54.2168 175.605 54.3331 175.463 54.4822 175.363C54.6313 175.264 54.8066 175.211 54.9859 175.211C55.2264 175.211 55.457 175.306 55.6271 175.476C55.7971 175.646 55.8926 175.877 55.8926 176.117Z" fill="#6097B2"/>
<path d="M43.0038 172.27C43.0038 172.449 42.9507 172.625 42.851 172.774C42.7514 172.923 42.6098 173.039 42.4441 173.108C42.2784 173.176 42.0961 173.194 41.9203 173.159C41.7444 173.124 41.5828 173.038 41.456 172.911C41.3292 172.784 41.2428 172.623 41.2079 172.447C41.1729 172.271 41.1908 172.089 41.2594 171.923C41.3281 171.758 41.4443 171.616 41.5934 171.516C41.7425 171.417 41.9178 171.363 42.0971 171.363C42.3376 171.363 42.5682 171.459 42.7383 171.629C42.9083 171.799 43.0038 172.03 43.0038 172.27Z" fill="#6097B2"/>
<path d="M35.3181 165.203C35.2128 165.374 35.054 165.506 34.8662 165.578C34.6785 165.65 34.4722 165.659 34.2793 165.602C34.0864 165.545 33.9176 165.426 33.799 165.264C33.6804 165.101 33.6187 164.904 33.6233 164.703C33.6226 164.595 33.6457 164.488 33.6911 164.389C34.2666 164.588 34.8137 164.862 35.3181 165.203Z" fill="#6097B2"/>
<path d="M59.6042 188.82C60.1049 188.82 60.5109 188.414 60.5109 187.913C60.5109 187.412 60.1049 187.006 59.6042 187.006C59.1034 187.006 58.6975 187.412 58.6975 187.913C58.6975 188.414 59.1034 188.82 59.6042 188.82Z" fill="#6097B2"/>
<path d="M37.3772 200.734C37.3772 200.913 37.324 201.089 37.2244 201.238C37.1247 201.387 36.9831 201.503 36.8175 201.572C36.6518 201.64 36.4695 201.658 36.2936 201.623C36.1177 201.588 35.9561 201.502 35.8293 201.375C35.7025 201.248 35.6162 201.087 35.5812 200.911C35.5462 200.735 35.5642 200.553 35.6328 200.387C35.7014 200.221 35.8176 200.08 35.9667 199.98C36.1158 199.88 36.2911 199.827 36.4705 199.827C36.7109 199.827 36.9416 199.923 37.1116 200.093C37.2817 200.263 37.3772 200.493 37.3772 200.734Z" fill="#6097B2"/>
<path d="M45.9189 193.862C46.4196 193.862 46.8256 193.456 46.8256 192.955C46.8256 192.454 46.4196 192.048 45.9189 192.048C45.4181 192.048 45.0122 192.454 45.0122 192.955C45.0122 193.456 45.4181 193.862 45.9189 193.862Z" fill="#6097B2"/>
<path d="M31.8438 186.989C32.3445 186.989 32.7505 186.583 32.7505 186.083C32.7505 185.582 32.3445 185.176 31.8438 185.176C31.343 185.176 30.9371 185.582 30.9371 186.083C30.9371 186.583 31.343 186.989 31.8438 186.989Z" fill="#6097B2"/>
<path d="M44.1139 213.157C44.1139 213.336 44.0607 213.511 43.9611 213.66C43.8615 213.809 43.7199 213.926 43.5542 213.994C43.3885 214.063 43.2062 214.081 43.0303 214.046C42.8544 214.011 42.6929 213.925 42.5661 213.798C42.4393 213.671 42.3529 213.509 42.3179 213.334C42.2829 213.158 42.3009 212.975 42.3695 212.81C42.4381 212.644 42.5544 212.502 42.7035 212.403C42.8526 212.303 43.0279 212.25 43.2072 212.25C43.4477 212.25 43.6783 212.345 43.8483 212.515C44.0184 212.686 44.1139 212.916 44.1139 213.157Z" fill="#6097B2"/>
<path d="M52.6895 165.601C52.6895 165.781 52.6363 165.956 52.5367 166.105C52.4371 166.254 52.2955 166.37 52.1298 166.439C51.9641 166.508 51.7818 166.525 51.6059 166.49C51.43 166.456 51.2685 166.369 51.1417 166.242C51.0149 166.116 50.9285 165.954 50.8935 165.778C50.8585 165.602 50.8765 165.42 50.9451 165.254C51.0137 165.089 51.1299 164.947 51.2791 164.847C51.4282 164.748 51.6035 164.694 51.7828 164.694C52.0233 164.694 52.2539 164.79 52.4239 164.96C52.594 165.13 52.6895 165.361 52.6895 165.601Z" fill="#6097B2"/>
<path d="M61.4091 150.374C61.4091 150.553 61.3557 150.729 61.2557 150.878C61.1557 151.027 61.0136 151.144 60.8474 151.212C60.6813 151.28 60.4985 151.298 60.3224 151.262C60.1463 151.227 59.9847 151.139 59.8583 151.012C59.7318 150.884 59.6462 150.722 59.6121 150.545C59.5781 150.369 59.5973 150.186 59.6672 150.021C59.7371 149.855 59.8546 149.714 60.0048 149.616C60.1551 149.517 60.3312 149.465 60.5109 149.467C60.6296 149.467 60.747 149.49 60.8566 149.536C60.9661 149.582 61.0655 149.649 61.1491 149.733C61.2326 149.817 61.2986 149.917 61.3432 150.027C61.3879 150.137 61.4102 150.255 61.4091 150.374Z" fill="#6097B2"/>
<path d="M71.2473 137.697C71.2473 137.876 71.1941 138.051 71.0945 138.2C70.9949 138.35 70.8532 138.466 70.6876 138.534C70.5219 138.603 70.3396 138.621 70.1637 138.586C69.9878 138.551 69.8263 138.465 69.6995 138.338C69.5727 138.211 69.4863 138.049 69.4513 137.874C69.4163 137.698 69.4343 137.515 69.5029 137.35C69.5715 137.184 69.6877 137.042 69.8369 136.943C69.986 136.843 70.1613 136.79 70.3406 136.79C70.4597 136.79 70.5775 136.813 70.6876 136.859C70.7976 136.905 70.8975 136.971 70.9817 137.056C71.0659 137.14 71.1327 137.24 71.1783 137.35C71.2238 137.46 71.2473 137.578 71.2473 137.697Z" fill="#6097B2"/>
<path d="M51.3167 156.161C51.3289 156.287 51.3147 156.414 51.2749 156.534C51.2351 156.654 51.1706 156.765 51.0856 156.858C51.0007 156.952 50.897 157.027 50.7814 157.078C50.6658 157.129 50.5407 157.156 50.4143 157.156C50.2878 157.156 50.1627 157.129 50.0471 157.078C49.9315 157.027 49.8279 156.952 49.7429 156.858C49.6579 156.765 49.5934 156.654 49.5536 156.534C49.5138 156.414 49.4996 156.287 49.5118 156.161C49.5335 155.937 49.638 155.729 49.8049 155.577C49.9717 155.426 50.1889 155.342 50.4143 155.342C50.6396 155.342 50.8568 155.426 51.0237 155.577C51.1905 155.729 51.295 155.937 51.3167 156.161Z" fill="#6097B2"/>
<path d="M62.3158 141.34C62.328 141.466 62.3138 141.593 62.274 141.713C62.2342 141.833 62.1697 141.944 62.0847 142.037C61.9997 142.131 61.8961 142.206 61.7805 142.257C61.6649 142.308 61.5398 142.335 61.4133 142.335C61.2869 142.335 61.1619 142.308 61.0462 142.257C60.9306 142.206 60.8269 142.131 60.742 142.037C60.657 141.944 60.5925 141.833 60.5527 141.713C60.5129 141.593 60.4987 141.466 60.5109 141.34C60.5326 141.116 60.6371 140.908 60.804 140.757C60.9708 140.605 61.188 140.521 61.4133 140.521C61.6387 140.521 61.8559 140.605 62.0228 140.757C62.1896 140.908 62.2941 141.116 62.3158 141.34Z" fill="#6097B2"/>
<path d="M45.0122 182.066C45.0122 182.246 44.9588 182.421 44.8587 182.571C44.7587 182.72 44.6166 182.836 44.4505 182.904C44.2843 182.973 44.1016 182.99 43.9254 182.955C43.7493 182.919 43.5878 182.832 43.4613 182.704C43.3349 182.576 43.2492 182.414 43.2152 182.238C43.1811 182.061 43.2003 181.879 43.2702 181.713C43.3402 181.547 43.4577 181.406 43.6079 181.308C43.7581 181.209 43.9343 181.158 44.1139 181.159C44.2326 181.159 44.3501 181.183 44.4596 181.228C44.5692 181.274 44.6686 181.341 44.7521 181.425C44.8356 181.51 44.9016 181.61 44.9463 181.72C44.9909 181.83 45.0133 181.947 45.0122 182.066Z" fill="#6097B2"/>
<path d="M33.6572 174.084C33.6572 174.263 33.604 174.438 33.5044 174.587C33.4047 174.736 33.2631 174.853 33.0974 174.921C32.9318 174.99 32.7495 175.008 32.5736 174.973C32.3977 174.938 32.2361 174.852 32.1093 174.725C31.9825 174.598 31.8962 174.436 31.8612 174.26C31.8262 174.085 31.8441 173.902 31.9128 173.737C31.9814 173.571 32.0976 173.429 32.2467 173.33C32.3958 173.23 32.5711 173.177 32.7505 173.177C32.8698 173.176 32.9882 173.198 33.0988 173.244C33.2093 173.289 33.3097 173.355 33.3941 173.44C33.4785 173.524 33.5453 173.625 33.5904 173.735C33.6356 173.846 33.6583 173.964 33.6572 174.084Z" fill="#6097B2"/>
<path d="M65.6969 172.27C66.1977 172.27 66.6036 171.864 66.6036 171.363C66.6036 170.863 66.1977 170.457 65.6969 170.457C65.1961 170.457 64.7902 170.863 64.7902 171.363C64.7902 171.864 65.1961 172.27 65.6969 172.27Z" fill="#6097B2"/>
<path d="M84.3988 177.024C84.8995 177.024 85.3055 176.618 85.3055 176.117C85.3055 175.617 84.8995 175.211 84.3988 175.211C83.898 175.211 83.4921 175.617 83.4921 176.117C83.4921 176.618 83.898 177.024 84.3988 177.024Z" fill="#6097B2"/>
<path d="M84.3987 150.374C84.3987 150.553 84.3456 150.728 84.246 150.877C84.1463 151.026 84.0047 151.143 83.839 151.211C83.6733 151.28 83.491 151.298 83.3151 151.263C83.1393 151.228 82.9777 151.142 82.8509 151.015C82.7241 150.888 82.6377 150.726 82.6027 150.551C82.5678 150.375 82.5857 150.192 82.6544 150.027C82.723 149.861 82.8392 149.719 82.9883 149.62C83.1374 149.52 83.3127 149.467 83.492 149.467C83.7325 149.467 83.9632 149.562 84.1332 149.733C84.3032 149.903 84.3987 150.133 84.3987 150.374Z" fill="#6097B2"/>
<path d="M95.2707 152.272C95.2707 152.451 95.2176 152.626 95.118 152.776C95.0183 152.925 94.8767 153.041 94.711 153.109C94.5453 153.178 94.363 153.196 94.1871 153.161C94.0113 153.126 93.8497 153.04 93.7229 152.913C93.5961 152.786 93.5097 152.625 93.4747 152.449C93.4398 152.273 93.4577 152.09 93.5264 151.925C93.595 151.759 93.7112 151.618 93.8603 151.518C94.0094 151.418 94.1847 151.365 94.364 151.365C94.4834 151.364 94.6018 151.387 94.7124 151.432C94.8229 151.477 94.9233 151.544 95.0077 151.628C95.0921 151.713 95.1588 151.813 95.204 151.923C95.2492 152.034 95.2719 152.152 95.2707 152.272Z" fill="#6097B2"/>
<path d="M73.5522 182.973C73.5522 183.152 73.4988 183.328 73.3988 183.477C73.2988 183.627 73.1567 183.743 72.9905 183.811C72.8243 183.879 72.6416 183.897 72.4654 183.861C72.2893 183.826 72.1278 183.738 72.0014 183.611C71.8749 183.483 71.7892 183.321 71.7552 183.144C71.7211 182.968 71.7403 182.785 71.8103 182.62C71.8802 182.454 71.9977 182.313 72.1479 182.215C72.2982 182.116 72.4743 182.064 72.654 182.066C72.7726 182.066 72.8901 182.089 72.9997 182.135C73.1092 182.181 73.2086 182.248 73.2921 182.332C73.3757 182.416 73.4416 182.516 73.4862 182.626C73.5309 182.736 73.5533 182.854 73.5522 182.973Z" fill="#6097B2"/>
<path d="M64.7902 199.963C65.2909 199.963 65.6969 199.557 65.6969 199.056C65.6969 198.555 65.2909 198.149 64.7902 198.149C64.2894 198.149 63.8835 198.555 63.8835 199.056C63.8835 199.557 64.2894 199.963 64.7902 199.963Z" fill="#6097B2"/>
<path d="M50.91 202.539C51.4108 202.539 51.8167 202.133 51.8167 201.632C51.8167 201.131 51.4108 200.725 50.91 200.725C50.4092 200.725 50.0033 201.131 50.0033 201.632C50.0033 202.133 50.4092 202.539 50.91 202.539Z" fill="#6097B2"/>
<path d="M89.0933 188.82C89.5941 188.82 90 188.414 90 187.913C90 187.412 89.5941 187.006 89.0933 187.006C88.5925 187.006 88.1866 187.412 88.1866 187.913C88.1866 188.414 88.5925 188.82 89.0933 188.82Z" fill="#6097B2"/>
<path d="M77.5011 194.768C77.501 194.948 77.4476 195.124 77.3476 195.273C77.2476 195.422 77.1055 195.538 76.9393 195.607C76.7731 195.675 76.5904 195.693 76.4143 195.657C76.2382 195.621 76.0766 195.534 75.9502 195.406C75.8237 195.279 75.738 195.116 75.704 194.94C75.67 194.763 75.6892 194.581 75.7591 194.415C75.829 194.25 75.9466 194.109 76.0968 194.01C76.247 193.912 76.4231 193.86 76.6028 193.862C76.7214 193.862 76.839 193.885 76.9485 193.931C77.0581 193.976 77.1574 194.043 77.2409 194.128C77.3245 194.212 77.3905 194.312 77.4351 194.422C77.4797 194.532 77.5022 194.65 77.5011 194.768Z" fill="#6097B2"/>
<path d="M58.6975 214.962C58.7097 215.087 58.6954 215.214 58.6557 215.334C58.6159 215.454 58.5514 215.565 58.4664 215.659C58.3814 215.752 58.2778 215.827 58.1621 215.878C58.0465 215.929 57.9215 215.956 57.795 215.956C57.6686 215.956 57.5435 215.929 57.4279 215.878C57.3122 215.827 57.2086 215.752 57.1236 215.659C57.0387 215.565 56.9742 215.454 56.9344 215.334C56.8946 215.214 56.8803 215.087 56.8926 214.962C56.9143 214.737 57.0188 214.529 57.1856 214.378C57.3524 214.226 57.5697 214.142 57.795 214.142C58.0203 214.142 58.2376 214.226 58.4044 214.378C58.5712 214.529 58.6757 214.737 58.6975 214.962Z" fill="#6097B2"/>
<path d="M71.7473 211.157C72.248 211.157 72.654 210.751 72.654 210.25C72.654 209.749 72.248 209.343 71.7473 209.343C71.2465 209.343 70.8406 209.749 70.8406 210.25C70.8406 210.751 71.2465 211.157 71.7473 211.157Z" fill="#6097B2"/>
<path d="M85.1868 205.835C85.6876 205.835 86.0935 205.429 86.0935 204.929C86.0935 204.428 85.6876 204.022 85.1868 204.022C84.6861 204.022 84.2801 204.428 84.2801 204.929C84.2801 205.429 84.6861 205.835 85.1868 205.835Z" fill="#6097B2"/>
<path d="M80.0262 220.486C80.0262 220.666 79.973 220.841 79.8734 220.99C79.7738 221.139 79.6322 221.256 79.4665 221.324C79.3008 221.393 79.1185 221.411 78.9426 221.376C78.7668 221.341 78.6052 221.254 78.4784 221.128C78.3516 221.001 78.2652 220.839 78.2302 220.663C78.1953 220.488 78.2132 220.305 78.2819 220.14C78.3505 219.974 78.4667 219.832 78.6158 219.733C78.7649 219.633 78.9402 219.58 79.1195 219.58C79.2386 219.58 79.3565 219.603 79.4665 219.649C79.5765 219.694 79.6765 219.761 79.7606 219.845C79.8448 219.93 79.9116 220.03 79.9572 220.14C80.0027 220.25 80.0262 220.367 80.0262 220.486Z" fill="#6097B2"/>
<path d="M79.0348 268.118H64.1801C63.214 265.347 65.0274 262.576 64.697 260.136C64.1801 256.018 66.5782 258.297 66.5782 258.297C67.0019 253.865 73.2302 253.026 73.1624 255.001C73.0607 257.907 73.6285 259.704 74.4589 260.932C76.1537 263.356 78.8738 263.33 79.3483 265.068C79.3483 265.237 79.4331 265.407 79.4585 265.551C79.9246 267.694 79.0348 268.118 79.0348 268.118Z" fill="#164353"/>
<path d="M79.4585 265.525C76.3825 266.245 69.2899 265.313 69.0102 263.525C68.7306 261.737 72.5523 260.983 74.4589 260.907C76.1537 263.33 78.8738 263.305 79.3484 265.042C79.3907 265.212 79.4331 265.381 79.4585 265.525Z" fill="#205260"/>
<path d="M17.9466 153.043C16.362 151.602 13.7944 153.984 13.7944 153.984C13.7944 153.984 15.1756 156.034 14.2859 156.865C13.3961 157.695 12.3538 155.797 10.5913 156.627C10.4429 156.701 10.2986 156.783 10.1591 156.873C8.78633 157.72 7.36273 159.415 6.20181 160.72C5.96454 160.983 5.74421 161.229 5.53236 161.449C4.18502 162.856 0.719188 163.686 0.0666994 159.924C-0.585789 156.161 3.65115 151.746 8.30331 147.687C12.9555 143.628 15.9298 146.044 15.9298 146.044C16.4691 146.885 16.8297 147.828 16.989 148.814C16.989 149.865 17.9297 150.391 18.455 151.399C18.5918 151.687 18.6155 152.016 18.5213 152.32C18.4271 152.625 18.222 152.883 17.9466 153.043Z" fill="#164353"/>
<path d="M10.1845 156.839C8.81173 157.687 7.38813 159.381 6.22721 160.686C4.49007 161.102 2.9224 160.983 2.67665 159.339C2.08348 155.39 9.97265 150.365 9.33711 153.145C9.11993 154.44 9.42461 155.768 10.1845 156.839Z" fill="#205260"/>
<path d="M285.281 261.695C284.41 261.119 283.713 260.316 283.264 259.373C282.956 257.223 282.956 255.041 283.264 252.891C283.789 249.569 282.34 246.849 277.637 245.832C272.934 244.815 270.35 247.044 271.4 256.238C270.705 260.051 270.553 264.415 272.155 268.101H286.23C286.23 268.101 288.45 263.356 285.281 261.695Z" fill="#CFD8DC"/>
<path d="M297.627 212.14C297.341 218.645 295.57 224.999 292.449 230.714C287.179 240.298 280.637 253.441 280.637 253.441C280.637 253.441 276.298 257.678 273.536 250.662C273.536 250.662 275.485 226.24 279.951 217.3C284.416 208.36 297.627 212.14 297.627 212.14Z" fill="#FF8B66"/>
<path d="M365.13 182.261C365.13 182.261 373.511 217.521 378.849 226.817C378.849 226.817 377.62 230.706 371.85 231.901C371.85 231.901 353.605 205.089 352.428 193.768C351.25 182.447 365.13 182.261 365.13 182.261Z" fill="#FF8B66"/>
<path d="M369.189 190.557C366.952 195.929 349.699 196.217 349.699 196.217L348.428 194.277L348.081 193.768L345.386 189.803C345.386 189.803 316.846 161.839 311.287 164.152C311.119 164.227 310.96 164.321 310.812 164.432C306.991 167.16 306.635 182.108 302.118 207.199C301.611 209.612 300.906 211.979 300.008 214.275L299.771 214.868C299.356 215.928 299.059 216.563 299.059 216.563C281.637 223.622 275.892 209.674 275.892 209.674C275.892 209.674 276.095 209.276 276.4 208.623C276.468 208.479 276.544 208.318 276.612 208.157C277.527 206.14 278.985 202.649 278.968 200.802C278.968 198.785 278.951 196.839 278.917 194.963C278.917 194.794 278.917 194.633 278.917 194.472C278.917 188.447 278.917 183.201 278.917 178.651V178.168C278.917 176.185 278.945 174.329 279.001 172.601V172.109C279.145 164.178 279.4 158.881 279.671 155.356C279.671 155.195 279.671 155.026 279.671 154.873C280.154 148.942 280.654 148.357 280.654 148.357L277.247 124.13H315.329C315.329 124.13 321.049 129.867 328.472 137.426C328.633 137.578 328.785 137.731 328.93 137.892C331.624 140.629 334.531 143.595 337.403 146.62C337.531 146.738 337.641 146.857 337.742 146.967L341.174 150.518C341.318 150.653 341.454 150.806 341.59 150.95C345.411 154.907 349.114 158.814 352.292 162.229C352.402 162.339 352.504 162.449 352.606 162.568C356.944 167.262 360.232 171.041 361.385 172.736C364.41 177.354 366.757 183.371 368.053 187.082C368.121 187.252 368.181 187.396 368.231 187.557C368.85 189.404 369.189 190.557 369.189 190.557Z" fill="#8B383E"/>
<path d="M286.391 152.026C284.657 153.966 282.253 155.177 279.662 155.416C279.662 155.255 279.662 155.085 279.662 154.933C282.098 154.697 284.356 153.557 285.992 151.738C287.597 149.659 288.376 147.06 288.179 144.442L288.645 144.391C288.871 147.128 288.067 149.851 286.391 152.026Z" fill="#662C33"/>
<path d="M328.887 137.892H328.447C324.21 137.892 319.795 133.265 319.566 133.028L319.905 132.697C319.964 132.765 324.362 137.375 328.43 137.409C328.591 137.578 328.743 137.731 328.887 137.892Z" fill="#662C33"/>
<path d="M299.983 214.275L299.745 214.868C297.262 215.809 294.631 216.303 291.975 216.326C284.442 216.326 279.264 211.97 276.375 208.699C276.442 208.555 276.519 208.394 276.586 208.233C280.247 212.487 288.069 218.817 299.983 214.275Z" fill="#662C33"/>
<path d="M310.202 155.416C310.878 158.279 311.234 161.21 311.262 164.152C311.093 164.228 310.934 164.321 310.787 164.432C310.787 150.221 302.55 139.137 302.449 139.01L302.83 138.722C306.212 143.634 308.67 149.122 310.084 154.916C311.042 154.302 311.719 153.333 311.965 152.221C313.151 147.23 307.728 139.086 307.728 139.002L308.118 138.739C308.338 139.086 313.668 147.137 312.439 152.297C312.305 152.945 312.037 153.556 311.651 154.094C311.266 154.631 310.772 155.081 310.202 155.416Z" fill="#662C33"/>
<path d="M352.606 162.568C351.207 164.093 349.885 165.389 349.767 165.5L349.513 165.754L349.394 165.415C347.547 160.593 335.692 150.162 335.573 150.026L335.429 149.891L337.403 146.62C337.531 146.738 337.641 146.857 337.742 146.967L336.09 149.713C337.699 150.375 339.437 150.664 341.174 150.56C341.318 150.696 341.454 150.848 341.59 150.992C341.183 151.058 340.772 151.092 340.361 151.094C339.122 151.061 337.894 150.847 336.717 150.458C339.412 152.89 347.775 160.627 349.691 164.957C350.436 164.228 351.385 163.262 352.292 162.271C352.402 162.339 352.504 162.449 352.606 162.568Z" fill="#662C33"/>
<path d="M287.56 194.921H287.374C285.804 195.246 284.206 195.41 282.603 195.412C281.351 195.433 280.103 195.284 278.891 194.972C278.891 194.802 278.891 194.641 278.891 194.48C282.001 195.378 286.145 194.692 287.085 194.48L286.297 174.897C285.754 176.337 284.702 177.527 283.34 178.244C282.529 178.645 281.634 178.846 280.73 178.829C280.12 178.825 279.512 178.757 278.917 178.626V178.143C280.322 178.549 281.826 178.434 283.154 177.821C283.896 177.4 284.546 176.834 285.066 176.157C285.586 175.48 285.964 174.706 286.179 173.88C284.611 174.117 281.442 173.321 279.027 172.575V172.084C281.628 172.872 285.153 173.779 286.425 173.346L286.73 173.245L287.56 194.921Z" fill="#662C33"/>
<path d="M368.231 187.599C365.994 189.797 363.346 191.531 360.438 192.703C357.53 193.875 354.419 194.461 351.284 194.429C350.33 194.431 349.376 194.381 348.428 194.277L348.081 193.768C358.571 194.98 365.147 190.057 368.07 187.125C368.121 187.294 368.181 187.438 368.231 187.599Z" fill="#662C33"/>
<path d="M322.32 20.9775C322.32 20.9775 321.278 18.5624 316.854 18.5624C313.465 18.5624 312.143 20.4436 312.143 20.4436C310.109 26.3753 307.906 49.2548 307.126 50.0344C306.728 50.4412 281.459 67.4652 281.459 67.4652C295.17 67.7194 303.728 84.6248 303.728 84.6248C304.177 79.0744 319.668 57.0593 319.829 55.0933C320.142 51.3902 326.701 34.8153 322.32 20.9775Z" fill="#CE364C"/>
<path d="M278.442 140.264C278.442 140.264 278.315 145.027 279.857 145.349C289.373 147.753 299.423 146.857 308.363 142.806C322.769 136.248 325.311 131.384 321.074 127.774C316.837 124.164 278.442 140.264 278.442 140.264Z" fill="#CE364C"/>
<path d="M272.663 70.7615C272.663 70.7615 259.537 69.2024 252.012 72.4563C252.012 72.4563 249.911 81.7776 260.257 102.615C270.604 123.452 268.197 136.587 279.857 141.527C290.195 145.908 320.676 132.867 321.634 128.545C324.04 117.664 305.406 98.5559 304.228 87.489C303.05 76.4221 292.229 59.7794 272.663 70.7615Z" fill="#F24052"/>
<path d="M252.012 72.4648C242.843 75.7187 232.522 86.023 232.522 90.9802C232.522 95.9374 241.132 97.861 241.132 97.861L255.215 90.9802C255.215 90.9802 259.257 88.1584 256.681 79.9642C254.105 71.7699 252.012 72.4648 252.012 72.4648Z" fill="#CE364C"/>
<path d="M289.704 81.642C286.773 81.6024 283.913 80.7391 281.45 79.1507C280.451 78.5456 279.729 77.5716 279.442 76.439C278.925 73.1851 282.094 71.5242 282.23 71.4564L282.662 72.3038C282.552 72.3631 279.959 73.7274 280.374 76.3034C280.625 77.1835 281.208 77.9313 282.001 78.388C284.694 80.1563 287.916 80.935 291.119 80.5912C291.578 80.5652 292.026 80.4368 292.429 80.2154C292.832 79.994 293.181 79.6852 293.449 79.3117C293.572 79.0475 293.641 78.7614 293.651 78.4703C293.661 78.1792 293.613 77.889 293.509 77.6169L294.356 77.244C294.516 77.6426 294.591 78.0704 294.575 78.4996C294.559 78.9289 294.452 79.3499 294.263 79.7354C293.931 80.2394 293.488 80.661 292.968 80.9679C292.448 81.2748 291.865 81.459 291.263 81.5064C290.748 81.5952 290.227 81.6406 289.704 81.642Z" fill="#CFD8DC"/>
<path d="M278.095 91.5903C276.069 91.5903 272.697 90.7429 272.222 87.4127C272.049 85.9649 272.066 84.5005 272.273 83.0571C272.477 81.2183 272.638 79.7693 271.561 78.0321C269.799 75.1595 267.392 74.9646 267.324 74.9561L267.384 74.024C267.502 74.024 270.367 74.2273 272.4 77.5322C273.638 79.5489 273.451 81.303 273.248 83.1588C273.047 84.5258 273.027 85.9134 273.188 87.2856C273.697 90.8785 278.273 90.6752 278.476 90.6752L278.535 91.6157L278.095 91.5903Z" fill="#CFD8DC"/>
<path d="M280.925 74.6849C280.925 74.6849 287.865 69.9565 286.221 64.8383C284.577 59.7201 262.232 60.076 256.469 66.1941C250.707 72.3123 268.934 76.3628 268.934 76.3628C270.341 73.524 279.357 73.2105 280.925 74.6849Z" fill="#CE364C"/>
<path d="M268.451 73.8799C265.164 72.7614 263.206 70.3887 263.918 67.6431C264.63 64.8976 278.773 64.8298 281.459 67.0161C284.145 69.2023 280.357 77.922 268.451 73.8799Z" fill="#A02E44"/>
<path d="M266.884 66.1687C266.884 66.1687 269.799 71.1429 268.451 73.8799C268.451 73.8799 278.442 77.3288 278.442 71.736C278.442 71.736 276.561 67.5499 277.273 64.8383L266.884 66.1687Z" fill="#EF6E4B"/>
<path d="M263.554 61.8216C263.554 61.8216 258.647 53.9578 259.096 46.45C259.325 42.696 261.257 41.2216 261.257 41.2216C261.257 41.2216 259.698 39.0523 261.367 35.739C261.367 35.739 263.681 38.4167 271.799 37.5778C279.628 36.7304 280.408 42.3401 280.408 42.3401C286.001 43.1875 282.222 60.0929 278.324 61.8301L263.554 61.8216Z" fill="#FFB878"/>
<path d="M261.469 54.5595C261.469 54.5595 258.647 51.7461 258.3 55.0425C257.901 58.8557 261.359 60.3895 262.037 59.1777C262.715 57.966 261.469 54.5595 261.469 54.5595Z" fill="#FF8B66"/>
<path d="M281.23 54.7628C281.23 54.7628 284.052 51.941 284.399 55.2374C284.806 59.0506 281.34 60.5844 280.662 59.3726C279.984 58.1609 281.23 54.7628 281.23 54.7628Z" fill="#FF8B66"/>
<path d="M271.053 68.3804C264.791 68.3804 261.257 64.2875 261.257 52.0173C261.257 45.6958 264.477 41.8486 271.494 41.8486C278.51 41.8486 281.459 45.7297 281.459 52.0173C281.484 65.2027 277.519 68.3804 271.053 68.3804Z" fill="#FF8B66"/>
<path d="M279.383 56.3983C279.364 56.7329 279.232 57.0511 279.009 57.3012C278.786 57.5514 278.485 57.7185 278.154 57.7755C277.824 57.8325 277.484 57.776 277.19 57.6152C276.896 57.4543 276.666 57.1986 276.536 56.8898C276.555 56.5552 276.686 56.2369 276.909 55.9868C277.132 55.7367 277.434 55.5695 277.764 55.5125C278.094 55.4555 278.434 55.5121 278.728 55.6729C279.022 55.8338 279.253 56.0894 279.383 56.3983Z" fill="#DB614D"/>
<path d="M266.502 56.7372C266.551 57.041 266.504 57.3523 266.368 57.628C266.231 57.9038 266.013 58.1303 265.742 58.2763C265.471 58.4223 265.162 58.4805 264.857 58.4429C264.551 58.4053 264.265 58.2736 264.038 58.0662C263.811 57.8589 263.654 57.586 263.589 57.2854C263.524 56.9848 263.554 56.6714 263.674 56.3885C263.795 56.1057 264.001 55.8674 264.263 55.7067C264.526 55.546 264.831 55.4708 265.138 55.4916C265.483 55.4821 265.817 55.6067 266.072 55.839C266.326 56.0713 266.481 56.3933 266.502 56.7372Z" fill="#DB614D"/>
<path d="M276.629 49.8226C276.587 49.8284 276.544 49.8254 276.503 49.8137C276.462 49.8021 276.424 49.782 276.391 49.7548C275.633 49.2837 274.728 49.1087 273.849 49.2633C273.773 49.2678 273.699 49.2446 273.639 49.198C273.579 49.1515 273.537 49.0847 273.523 49.0102C273.508 48.9356 273.522 48.8583 273.56 48.7926C273.598 48.727 273.659 48.6774 273.731 48.6532C274.777 48.4626 275.857 48.681 276.747 49.2633C276.78 49.2889 276.807 49.3206 276.827 49.3566C276.847 49.3926 276.859 49.4322 276.864 49.4731C276.869 49.514 276.865 49.5555 276.854 49.5951C276.843 49.6347 276.824 49.6717 276.798 49.7039C276.754 49.759 276.696 49.8002 276.629 49.8226Z" fill="#FFB878"/>
<path d="M264.647 49.8649C264.606 49.8611 264.567 49.8486 264.532 49.8281C264.497 49.8076 264.467 49.7797 264.443 49.7463C264.391 49.6822 264.365 49.5998 264.373 49.5172C264.381 49.4346 264.422 49.3586 264.486 49.3057C265.358 48.7019 266.428 48.4534 267.477 48.6108C267.517 48.6169 267.556 48.6311 267.591 48.6525C267.625 48.6738 267.656 48.7019 267.679 48.7351C267.703 48.7682 267.72 48.8058 267.729 48.8456C267.738 48.8854 267.738 48.9266 267.731 48.9667C267.717 49.0477 267.672 49.12 267.605 49.1688C267.539 49.2177 267.457 49.2394 267.375 49.2294C266.503 49.1004 265.614 49.303 264.884 49.7971C264.815 49.8466 264.731 49.8706 264.647 49.8649Z" fill="#FFB878"/>
<path d="M275.976 53.3562C275.976 54.1273 275.629 54.7628 275.197 54.7628C274.765 54.7628 274.417 54.1273 274.417 53.3562C274.417 52.5851 274.765 51.941 275.197 51.941C275.629 51.941 275.976 52.6105 275.976 53.3562Z" fill="#1A4850"/>
<path d="M267.621 53.3562C267.621 54.1273 267.265 54.7628 266.833 54.7628C266.401 54.7628 266.053 54.1273 266.053 53.3562C266.053 52.5851 266.401 51.941 266.833 51.941C267.265 51.941 267.621 52.6105 267.621 53.3562Z" fill="#1A4850"/>
<path d="M263.181 43.1705C268.429 44.7948 273.942 45.3904 279.417 44.9246C279.417 44.9246 281.459 47.4668 281.213 56.4406C281.213 56.4406 286.814 40.281 270.46 40.281C254.105 40.281 261.469 56.0848 261.469 56.0848C261.469 56.0848 260.139 46.1957 263.181 43.1705Z" fill="#FFB878"/>
<path d="M271.451 57.5338L270.977 57.0593L272.222 55.8305C271.019 54.1358 271.027 50.2039 271.027 50.0259H271.688C271.688 50.0683 271.688 54.2629 272.909 55.6187L273.129 55.8559L271.451 57.5338Z" fill="#DB614D"/>
<path d="M267.291 59.5845C267.291 59.5845 273.46 59.8387 276.612 59.0167C276.697 59.6143 276.649 60.2233 276.473 60.8006C276.297 61.3779 275.996 61.9095 275.592 62.3579C275.188 62.8064 274.69 63.1607 274.135 63.396C273.579 63.6313 272.978 63.7418 272.375 63.7197C267.291 63.957 267.291 59.5845 267.291 59.5845Z" fill="#1A4850"/>
<path d="M293.627 76.5238C294.805 76.3034 294.687 79.3879 293.627 78.4897C292.568 77.5915 292.449 76.7441 293.627 76.5238Z" fill="#CFD8DC"/>
<path d="M279.442 91.4378C279.264 92.6241 276.4 91.4971 277.586 90.7938C278.773 90.0905 279.629 90.2515 279.442 91.4378Z" fill="#CFD8DC"/>
<path d="M266.825 97.861C266.825 97.861 264.952 102.649 265.062 105.352C265.172 108.055 266.053 107.708 266.053 107.708C265.621 107.898 265.241 108.19 264.946 108.559C264.651 108.928 264.45 109.363 264.359 109.826C264.096 111.385 268.028 112.529 268.299 112.529C268.57 112.529 271.35 111.47 271.35 111.47L271.934 102.623L269.468 101.073L266.825 97.861Z" fill="#EF6E4B"/>
<path d="M268.307 97.2424C269.962 98.2547 271.539 99.3876 273.027 100.632C274.341 101.928 273.587 111.919 273.027 112.394C272.468 112.868 268.121 113.834 267.291 113.292C266.46 112.75 267.621 109.809 267.621 109.809C267.621 109.809 269.79 109.335 269.477 110.157C269.291 110.651 269.291 111.196 269.477 111.69L270.375 111.334C270.13 110.052 270.13 108.736 270.375 107.453C270.816 105.809 267.307 104.064 266.884 101.056C266.46 98.0474 268.307 97.2424 268.307 97.2424Z" fill="#FF8B66"/>
<path d="M233.073 92.3699C231.98 87.6669 236.649 86.006 243.14 86.811C250.665 87.7347 266.121 89.7091 269.477 97.8271C269.477 97.8271 270.578 101.039 267.74 102.589C259.8 106.937 235.115 101.2 233.073 92.3699Z" fill="#CE364C"/>
<path d="M256.613 89.2515C256.613 89.2515 247.648 85.5315 243.174 85.1502C238.7 84.7688 249.36 88.6753 256.613 89.2515Z" fill="#A02E44"/>
<path d="M323.854 8.49545C323.126 9.68678 322.524 10.9505 322.057 12.2663C321.591 14.8085 321.32 16.1813 320.43 17.3507C319.541 18.52 320.015 20.5453 320.015 20.5453C320.015 20.5453 316.625 22.3079 313.71 20.1301C313.71 20.1301 314.016 18.1133 313.71 17.5371C313.126 16.3931 311.219 15.7745 310.575 13.4611C309.964 11.7022 309.087 10.0475 307.974 8.55476C307.974 8.55476 308.533 7.35147 309.55 8.08022C310.567 8.80898 311.245 10.6817 311.778 10.8681C311.888 10.9065 312.002 10.932 312.117 10.9444C312.314 10.9806 312.516 10.9727 312.71 10.9214C312.903 10.8702 313.083 10.7767 313.236 10.6478C313.262 10.6366 313.286 10.6191 313.304 10.597C314.236 9.51231 314.448 6.36004 314.414 4.911C314.354 2.93659 314.414 0.207998 315.634 0.674062C316.854 1.14013 315.744 2.24173 316.668 6.60578L317.125 6.65662C317.21 6.97015 318.032 4.02124 318.236 1.24181C318.371 -0.664813 319.625 0.0385133 319.93 0.640159C320.235 1.2418 319.795 3.13996 319.71 4.5212C319.642 5.43638 319.566 6.38545 319.515 6.9532L320.049 7.24132C321.947 3.93651 321.295 2.55526 322.405 2.49594C323.515 2.43662 323.116 5.22453 322.523 6.28377C322.199 7.04212 321.963 7.83545 321.82 8.64797C323.769 6.39392 323.515 5.25843 324.447 5.36012C325.379 5.4618 324.532 7.6989 323.854 8.49545Z" fill="#FF8B66"/>
<path d="M315.448 13.6815C314.787 11.8681 312.431 11.0376 312.143 10.9444C312.34 10.9806 312.542 10.9727 312.735 10.9214C312.929 10.8702 313.108 10.7767 313.261 10.6478C313.888 10.8756 314.432 11.2867 314.822 11.8278C315.212 12.3689 315.43 13.0148 315.448 13.6815Z" fill="#EF6E4B"/>
<path d="M274.578 254.289C274.578 254.289 273.273 251.637 274.434 250.493C275.595 249.349 276.976 251.467 278.942 251.001C280.908 250.535 281.383 249.12 281.899 251.001C282.416 252.882 281.789 259.017 274.578 254.289Z" fill="#CFD8DC"/>
<path d="M282.035 254.196C282.035 254.196 276.714 256.085 273.951 254.196L274.654 256.501C274.654 256.501 280.442 257.119 281.239 255.653L282.035 254.196Z" fill="#ADBEC4"/>
<path d="M281.967 257.06C281.967 257.06 277.095 256.382 274.739 257.594V258.738C274.739 258.738 281.094 257.255 283.154 258.738L281.967 257.06Z" fill="#ADBEC4"/>
<path d="M274.502 261.11C274.865 260.379 275.422 259.762 276.113 259.327C276.803 258.892 277.601 258.656 278.417 258.644C280.191 258.546 281.946 259.064 283.382 260.11C283.382 260.11 278.679 258.17 274.502 261.11Z" fill="#ADBEC4"/>
<path d="M400 229.096C394.579 236.469 386.769 241.734 377.9 243.993C374.197 241.036 374.104 237.536 374.104 237.536C374.104 237.536 370.536 234.358 370.07 232.833C369.604 231.308 373.129 226.723 375.248 227.189C375.824 227.343 376.36 227.616 376.823 227.992C377.286 228.367 377.665 228.836 377.934 229.367C376.188 225.418 377.587 224.046 380.069 224.385C382.552 224.723 380.214 225.351 382.061 227.427C382.194 227.572 382.345 227.7 382.51 227.808C382.871 228.055 383.282 228.22 383.713 228.291C384.15 228.366 384.593 228.389 385.035 228.359C385.281 228.359 385.535 228.359 385.789 228.283C386.289 228.201 386.782 228.082 387.264 227.927C388.089 227.664 388.887 227.321 389.645 226.901C392.882 225.13 394.246 224.529 396.712 225.156C399.178 225.783 399.127 227.638 399.127 227.638L400 229.096Z" fill="#CFD8DC"/>
<path d="M400 229.096C394.579 236.469 386.768 241.734 377.9 243.993C384.4 241.197 390.374 237.536 394.458 233.036C398.542 228.537 400 229.096 400 229.096Z" fill="#ADBEC4"/>
<path d="M382.51 227.808C382.871 228.055 383.282 228.22 383.713 228.291C383.038 228.396 382.415 228.717 381.937 229.206C381.459 229.695 381.151 230.325 381.061 231.003L380.002 230.664C380.23 228.02 382.323 227.816 382.51 227.808Z" fill="#ADBEC4"/>
<path d="M384.171 231.265H383.069C382.884 230.754 382.847 230.201 382.961 229.669C383.074 229.137 383.335 228.648 383.713 228.257C384.15 228.332 384.593 228.355 385.035 228.325C384.652 228.701 384.372 229.168 384.22 229.683C384.069 230.197 384.052 230.742 384.171 231.265Z" fill="#ADBEC4"/>
<path d="M386.891 230.664L385.798 230.799C385.614 230.401 385.519 229.967 385.519 229.528C385.519 229.089 385.614 228.656 385.798 228.257C386.297 228.176 386.79 228.057 387.272 227.901C387.005 228.303 386.832 228.761 386.766 229.239C386.7 229.717 386.743 230.204 386.891 230.664Z" fill="#ADBEC4"/>
<path d="M282.137 114.648C282.137 114.648 284.552 127.681 279.662 132.875C274.773 138.07 277.968 133.807 279.468 127.104C280.967 120.401 279.79 113.351 282.137 114.648Z" fill="#CE364C"/>
<path d="M304.686 108.826C304.686 108.826 312.38 111.368 316.414 118.469C316.414 118.469 311.033 106.886 304.686 108.826Z" fill="#CE364C"/>
<path d="M114.151 9.20725C113.244 7.51247 114.21 5.1991 114.337 4.91946C114.232 5.08968 114.092 5.23483 113.925 5.34465C113.758 5.45447 113.569 5.52628 113.371 5.55501C113.115 6.171 113.053 6.85023 113.192 7.50255C113.331 8.15487 113.665 8.74941 114.151 9.20725Z" fill="#EF6E4B"/>
<path d="M262.842 9.20725C263.74 7.51247 262.774 5.1991 262.647 4.91946C262.753 5.08991 262.896 5.23507 263.064 5.34484C263.232 5.45461 263.422 5.52633 263.621 5.55501C263.875 6.17139 263.936 6.85002 263.797 7.5018C263.658 8.15359 263.325 8.74808 262.842 9.20725Z" fill="#EF6E4B"/>
<path d="M222.243 184.693L211.295 116.902L189.373 119.351L167.451 116.902L156.503 184.693L151.249 250.442C151.249 250.442 152.944 255.882 163.85 252.136C163.85 252.136 171.968 191.125 173.222 189.82C174.476 188.515 187.356 148.645 187.356 148.645H191.39C191.39 148.645 204.27 188.472 205.524 189.82C206.779 191.167 214.846 252.136 214.846 252.136C225.785 255.899 227.455 250.442 227.455 250.442L222.243 184.693Z" fill="#0E3944"/>
<path d="M182.467 51.2716C183.848 52.619 190.661 55.051 194.263 51.2716L196.703 53.6697C196.703 53.6697 193.915 60.2115 189.034 60.4488C184.153 60.6861 180.628 54.6273 180.628 54.6273L182.467 51.2716Z" fill="#0C476B"/>
<path d="M201.762 50.5344C209.914 47.0262 236.251 37.6964 236.251 37.6964C236.251 37.6964 253.961 15.5034 257.571 12.2155C257.571 12.2155 261.494 12.9188 262.655 17.7998C262.655 17.7998 251.258 42.213 245.055 49.204C238.852 56.1949 207.465 71.3123 207.465 71.3123L201.762 50.5344Z" fill="#0C476B"/>
<path d="M173.222 50.0683C175.645 48.5345 187.822 56.6779 187.822 56.6779C187.822 56.6779 203.66 48.2718 207.372 49.8988C207.372 49.8988 210.761 54.3815 212.066 65.8975C213.371 77.4135 213.498 124.825 213.498 124.825C205.394 127.357 196.948 128.626 188.458 128.587C172.044 128.587 163.214 123.884 163.214 123.884C163.214 123.884 160.308 58.2117 173.222 50.0683Z" fill="#FFB878"/>
<path d="M183.111 48.7972C183.111 48.7972 184.865 54.3137 183.111 56.4237C183.111 56.4237 184.933 60.2454 188.195 60.4149C191.975 60.6098 193.28 56.4237 193.28 56.4237C193.28 56.4237 191.28 51.0936 193.28 49.2209L183.111 48.7972Z" fill="#EF6E4B"/>
<path d="M178.738 43.3739C178.738 43.3739 175.044 36.2644 175.781 28.6802C176.518 21.0961 187.95 19.359 195.652 23.079C195.652 23.079 193.364 20.8419 194.263 20.2148C195.161 19.5878 196.703 23.6044 196.703 23.6044C196.703 23.6044 199.135 22.8587 199.508 23.6044C199.881 24.3501 197.017 24.7568 197.017 24.7568C197.017 24.7568 201.982 27.5193 197.339 42.1961L178.738 43.3739Z" fill="#8B383E"/>
<path d="M178.179 38.8743C178.179 38.8743 175.434 36.1288 175.095 39.3404C174.696 43.0519 178.078 44.5518 178.738 43.3739C179.399 42.1961 178.179 38.8743 178.179 38.8743Z" fill="#FF8B66"/>
<path d="M197.449 39.0523C197.449 39.0523 200.203 36.3067 200.542 39.5099C200.932 43.2299 197.559 44.7298 196.898 43.5434C196.237 42.3571 197.449 39.0523 197.449 39.0523Z" fill="#FF8B66"/>
<path d="M187.526 52.3393C181.425 52.3393 177.976 48.3566 177.976 36.3914C177.976 30.2225 181.111 26.4431 187.95 26.4431C194.788 26.4431 197.669 30.2225 197.669 36.3914C197.669 49.2209 193.83 52.3393 187.526 52.3393Z" fill="#FF8B66"/>
<path d="M195.652 40.6623C195.773 40.9382 195.804 41.2448 195.742 41.5393C195.68 41.8339 195.528 42.1018 195.307 42.306C195.085 42.5101 194.806 42.6403 194.508 42.6785C194.209 42.7166 193.906 42.6608 193.641 42.5189C193.375 42.377 193.161 42.1559 193.027 41.8864C192.892 41.6169 192.846 41.3123 192.893 41.015C192.94 40.7177 193.078 40.4424 193.289 40.2274C193.499 40.0123 193.772 39.8681 194.068 39.8149C194.39 39.7241 194.735 39.7616 195.031 39.9196C195.326 40.0775 195.549 40.3437 195.652 40.6623Z" fill="#DB614D"/>
<path d="M183.094 40.9928C183.139 41.2872 183.092 41.5884 182.959 41.8548C182.825 42.1212 182.613 42.3398 182.35 42.4805C182.088 42.6211 181.788 42.6769 181.492 42.6401C181.197 42.6034 180.92 42.476 180.7 42.2753C180.48 42.0747 180.327 41.8107 180.263 41.5198C180.199 41.2288 180.227 40.9252 180.343 40.6508C180.458 40.3763 180.656 40.1445 180.909 39.9872C181.162 39.83 181.458 39.755 181.755 39.7726C182.093 39.7609 182.423 39.882 182.673 40.1101C182.923 40.3381 183.074 40.6549 183.094 40.9928Z" fill="#DB614D"/>
<path d="M192.856 34.451C192.815 34.4521 192.774 34.4444 192.736 34.4283C192.698 34.4122 192.664 34.3881 192.636 34.3577C191.985 33.7943 191.149 33.4924 190.288 33.5103C190.207 33.5103 190.13 33.4782 190.073 33.421C190.015 33.3638 189.983 33.2862 189.983 33.2053C189.983 33.1244 190.015 33.0468 190.073 32.9896C190.13 32.9324 190.207 32.9002 190.288 32.9002C191.321 32.8772 192.323 33.2466 193.093 33.934C193.122 33.9624 193.144 33.996 193.16 34.0331C193.175 34.0702 193.183 34.11 193.183 34.1501C193.183 34.1903 193.175 34.23 193.16 34.2671C193.144 34.3042 193.122 34.3379 193.093 34.3662C193.062 34.3969 193.025 34.4204 192.984 34.435C192.943 34.4497 192.899 34.4551 192.856 34.451Z" fill="#8B383E"/>
<path d="M181.365 34.451C181.326 34.4515 181.287 34.4443 181.251 34.4298C181.215 34.4152 181.181 34.3936 181.154 34.3662C181.125 34.3379 181.103 34.3042 181.087 34.2671C181.072 34.23 181.064 34.1903 181.064 34.1501C181.064 34.11 181.072 34.0702 181.087 34.0331C181.103 33.9961 181.125 33.9624 181.154 33.934C181.929 33.249 182.933 32.8801 183.967 32.9002C184.007 32.9013 184.046 32.9103 184.083 32.9267C184.12 32.943 184.153 32.9664 184.18 32.9955C184.208 33.0247 184.229 33.0589 184.243 33.0964C184.258 33.1338 184.265 33.1737 184.263 33.2138C184.259 33.2939 184.224 33.3694 184.166 33.4246C184.107 33.4798 184.03 33.5105 183.95 33.5103C183.09 33.4948 182.254 33.7964 181.603 34.3577C181.572 34.3895 181.535 34.4142 181.494 34.4303C181.453 34.4464 181.409 34.4535 181.365 34.451Z" fill="#8B383E"/>
<path d="M192.331 37.6964C192.331 38.4506 191.992 39.0692 191.568 39.0692C191.144 39.0692 190.805 38.4506 190.805 37.6964C190.805 36.9423 191.144 36.3237 191.568 36.3237C191.992 36.3237 192.331 36.9338 192.331 37.6964Z" fill="#1A4850"/>
<path d="M184.179 37.6964C184.179 38.4506 183.831 39.0692 183.416 39.0692C183.001 39.0692 182.653 38.4506 182.653 37.6964C182.653 36.9423 182.992 36.3237 183.416 36.3237C183.84 36.3237 184.179 36.9338 184.179 37.6964Z" fill="#1A4850"/>
<path d="M184.179 45.8314C184.179 45.8314 189.56 46.5262 192.331 45.1958C192.331 45.1958 190.763 48.8566 187.822 48.5345C187.019 48.4829 186.248 48.2002 185.602 47.7207C184.955 47.2411 184.461 46.5851 184.179 45.8314Z" fill="#1A4850"/>
<path d="M197.034 40.425C197.034 40.425 196.847 33.7815 194.263 28.6802C194.263 28.6802 189.704 30.7818 188.704 30.2818C187.704 29.7818 189.653 28.6802 189.653 28.6802C189.653 28.6802 182.137 31.1546 181.687 30.6546C181.238 30.1547 184.179 28.6802 184.179 28.6802L179.493 30.2818C179.493 30.2818 178.052 36.2644 178.645 40.4505C178.645 40.4505 176.637 36.9762 176.383 34.5781C176.129 32.18 177.188 25.3415 184.247 24.8416C191.305 24.3416 195.263 25.9432 197.017 29.1887C198.771 32.4342 198.542 36.383 197.034 40.425Z" fill="#8B383E"/>
<path d="M188.594 43.8908C188.126 43.8784 187.662 43.8073 187.212 43.679L187.382 43.0604C188.026 43.2384 189.034 43.3401 189.246 43.0604C189.322 42.9672 189.297 42.7553 189.17 42.4842C188.322 40.6115 188.102 35.8576 188.094 35.6542H188.738C188.738 35.7051 188.924 40.4759 189.755 42.23C189.881 42.4177 189.949 42.639 189.949 42.8655C189.949 43.092 189.881 43.3134 189.755 43.5011C189.599 43.644 189.416 43.7527 189.216 43.8198C189.016 43.887 188.804 43.9112 188.594 43.8908Z" fill="#DB614D"/>
<path d="M195.347 53.0172C195.347 53.0172 206.363 87.3195 207.448 115.232C207.448 115.232 211.439 116.334 215.922 110.216C220.405 104.098 217.735 55.6611 209.143 47.5939C209.143 47.5939 205.219 46.6788 195.347 53.0172Z" fill="#105E99"/>
<path d="M197.144 59.0167C197.144 59.0167 199.127 54.4239 198.245 51.2716C197.364 48.1193 194.263 51.2716 194.263 51.2716C194.263 51.2716 195.517 56.4322 197.144 59.0167Z" fill="#0C476B"/>
<path d="M174.968 50.5344C166.816 47.0262 140.47 37.6964 140.47 37.6964C140.47 37.6964 122.675 14.8593 119.108 11.563C117.764 12.3966 116.633 13.5323 115.804 14.8798C114.976 16.2273 114.474 17.7494 114.337 19.3251C114.337 19.3251 125.489 42.2046 131.683 49.204C137.877 56.2034 169.282 71.3123 169.282 71.3123L174.968 50.5344Z" fill="#0C476B"/>
<path d="M181.382 53.0172C181.382 53.0172 170.366 87.3195 169.282 115.232C169.282 115.232 165.29 116.334 160.808 110.216C156.325 104.098 158.986 55.6611 167.587 47.5939C167.578 47.5939 171.485 46.6788 181.382 53.0172Z" fill="#105E99"/>
<path d="M179.577 59.0167C179.577 59.0167 177.603 54.4239 178.476 51.2716C179.349 48.1193 182.467 51.2716 182.467 51.2716C182.467 51.2716 181.213 56.4322 179.577 59.0167Z" fill="#0C476B"/>
<path d="M237.242 268.118H215.303C213.77 259.399 216.218 250.662 216.218 250.662L226.243 248.967C227.158 254.484 228.26 256.653 229.785 257.772C230.895 258.619 232.226 258.848 233.878 259.424C234.645 259.655 235.35 260.058 235.937 260.603C236.525 261.148 236.98 261.82 237.268 262.568C237.82 264.378 237.811 266.313 237.242 268.118Z" fill="#662C33"/>
<path d="M237.276 262.542C231.861 263.22 219.981 264.381 220.701 261.246C221.311 258.636 226.319 257.924 229.785 257.746C230.895 258.594 232.226 258.822 233.878 259.399C234.647 259.628 235.353 260.031 235.942 260.576C236.531 261.121 236.987 261.794 237.276 262.542Z" fill="#8B383E"/>
<path d="M163.765 268.118H141.826C141.405 266.748 141.278 265.304 141.453 263.881C141.568 262.85 141.982 261.875 142.644 261.077C143.307 260.278 144.189 259.692 145.182 259.39C147.089 258.729 148.572 258.483 149.741 257.365C150.91 256.246 152.003 253.882 152.825 248.933L162.858 250.628C162.858 250.628 165.29 259.373 163.765 268.118Z" fill="#662C33"/>
<path d="M141.453 263.89C141.568 262.859 141.982 261.883 142.644 261.085C143.307 260.287 144.189 259.701 145.182 259.399C147.089 258.738 148.571 258.492 149.741 257.373C152.512 258.221 156.401 259.797 157.605 262.178C159.282 265.44 146.453 264.924 141.453 263.89Z" fill="#8B383E"/>
<path d="M321.312 266.542C321.314 267.069 321.283 267.595 321.218 268.118H294.534C294.534 267.593 294.534 267.059 294.534 266.542C294.776 262.111 295.617 257.732 297.034 253.526L303.694 250.662C304.027 253.434 305.428 255.967 307.601 257.721C308.078 258.092 308.589 258.418 309.126 258.695C309.372 258.831 309.618 258.949 309.872 259.068C310.421 259.318 310.987 259.527 311.567 259.695C313.667 260.233 315.806 260.607 317.964 260.814C320.845 261.254 321.312 264.542 321.312 266.542Z" fill="#164353"/>
<path d="M321.312 266.542C321.314 267.069 321.283 267.595 321.218 268.118H294.534C294.534 267.593 294.534 267.059 294.534 266.542H321.312Z" fill="#225866"/>
<path d="M309.16 258.695L305.465 259.882L304.686 258.526L307.635 257.678C308.11 258.064 308.621 258.404 309.16 258.695Z" fill="#225866"/>
<path d="M311.609 259.695L309.118 261.39L307.584 260.788L309.906 259.094C310.458 259.335 311.027 259.536 311.609 259.695Z" fill="#225866"/>
<path d="M219.447 266.542C219.409 267.078 219.306 267.607 219.142 268.118H201.389C201.169 267.611 201.002 267.083 200.889 266.542C199.144 258.068 210.939 247.654 210.939 247.654L214.685 252.645C214.685 252.645 214.253 260.644 217.422 262.314C218.155 262.722 218.744 263.349 219.107 264.106C219.469 264.863 219.588 265.714 219.447 266.542Z" fill="#164353"/>
<path d="M200.889 266.542H219.447C219.409 267.078 219.306 267.607 219.142 268.118H201.389C201.169 267.611 201.002 267.083 200.889 266.542Z" fill="#225866"/>
<path d="M216.608 261.678C216.608 261.678 209.134 259.983 205.719 262.178V260.941C205.719 260.941 211.998 257.882 216.608 261.678Z" fill="#225866"/>
<path d="M215.125 259.78C215.125 259.78 210.355 257.594 205.719 259.78L206.253 258.534C206.253 258.534 211.778 256.441 215.125 259.78Z" fill="#225866"/>
<path d="M313.236 191.014C313.236 198.158 306.906 256.373 306.906 256.373C303.088 256.757 299.235 256.542 295.483 255.738C293.738 226.232 293.568 200.861 293.568 200.861L263.181 178.083L263.104 178.024C263.104 178.024 262.994 178.541 262.791 179.464C261.283 186.142 254.91 214.123 252.258 220.529C249.284 227.833 216.235 258.526 216.235 258.526C210.1 257.678 204.897 253.23 204.897 253.23C216.761 233.57 232.912 213.851 232.912 213.851C234.175 206.767 235.081 190.972 235.615 179.227V178.685C235.98 170.702 236.158 164.686 236.158 164.686L230.582 153.263L265.969 140.256L273.9 150.424C273.9 150.424 275.714 152.119 278.578 154.805L278.968 155.17C289.602 165.177 313.236 187.82 313.236 191.014Z" fill="#8BBDDB"/>
<path d="M235.598 179.236V178.693C243.055 174.643 241.801 168.194 241.784 168.126L242.242 168.033C242.284 168.101 243.623 175.033 235.598 179.236Z" fill="#6097B2"/>
<path d="M262.638 173.516C262.907 175.027 263.088 176.552 263.181 178.083L263.104 178.024C263.104 178.024 262.994 178.541 262.791 179.464C262.46 168.398 257.893 161.856 257.842 161.788L258.223 161.508C258.274 161.568 261.147 165.745 262.545 172.982C267.926 168.203 262.655 158.407 262.596 158.314L263.011 158.085C263.071 158.187 268.646 168.559 262.638 173.516Z" fill="#6097B2"/>
<path d="M278.942 155.144C278.706 155.231 278.456 155.274 278.205 155.272C275.603 155.272 271.231 151.619 271.019 151.441L271.333 151.085C272.748 152.289 276.714 155.178 278.586 154.763L278.942 155.144Z" fill="#6097B2"/>
<path d="M233.073 92.3699C233.073 92.3699 243.835 90.6751 249.224 94.0647C254.614 97.4542 261.698 106.479 261.698 106.479C261.698 106.479 253.292 107.589 252.377 113.3C252.343 113.309 246.233 98.7677 233.073 92.3699Z" fill="#ADBEC4"/>
<path d="M216.879 97.9797C212.329 100.446 204.719 109.682 204.372 115.368C204.033 120.91 208.143 126.011 210.914 130.341C219.549 143.9 228.641 155.814 232.505 171.677C232.505 171.779 252.266 179.609 275.417 151.772C275.417 151.772 262.333 134.163 257.817 119.173C255.978 113.072 254.105 106.589 250.572 101.217C248.715 98.3097 246.111 95.9551 243.033 94.3988C239.955 92.8425 236.515 92.1418 233.073 92.37C227.201 92.8445 221.362 95.5561 216.879 97.9797Z" fill="#CFD8DC"/>
<path d="M214.964 92.3106C214.964 92.3106 217.879 97.2848 216.532 100.022C216.532 100.022 226.531 103.471 226.531 97.878C226.531 97.878 224.642 93.6919 225.353 90.9802L214.964 92.3106Z" fill="#EF6E4B"/>
<path d="M237.174 126.384C237.174 126.384 231.615 127.96 230.209 129.935C228.802 131.909 227.565 136.315 227.565 136.315H237.174L238.979 132.985L241.098 128.553L237.174 126.384Z" fill="#EF6E4B"/>
<path d="M227.989 86.7602C227.989 86.7602 231.887 85.1248 229.361 73.3884C227.667 65.6094 225.277 64.4485 223.726 64.3807C223.726 64.3807 221.82 61.5165 215.21 62.8893C212.926 63.284 210.8 64.3171 209.079 65.8691C207.357 67.4211 206.11 69.4287 205.482 71.6598C203.83 76.9729 207.177 88.3448 211.515 89.4549L227.989 86.7602Z" fill="#164353"/>
<path d="M228.946 78.8287C228.946 78.8287 231.412 75.4391 232.336 78.7778C233.412 82.6927 230.065 84.8875 229.15 83.7435C228.234 82.5995 228.946 78.8287 228.946 78.8287Z" fill="#FF8B66"/>
<path d="M208.329 82.4385C208.329 82.4385 204.94 79.9896 205.109 83.4808C205.338 87.5313 209.219 88.5652 209.719 87.15C210.219 85.7349 208.329 82.4385 208.329 82.4385Z" fill="#FF8B66"/>
<path d="M221.32 94.8867C227.853 93.8105 230.836 88.955 228.726 76.1424C227.633 69.5413 223.642 66.0501 216.295 67.2534C208.948 68.4566 206.567 73.0156 207.651 79.6167C209.888 93.3699 214.541 96.0052 221.32 94.8867Z" fill="#FF8B66"/>
<path d="M210.533 83.8283C210.577 84.1918 210.761 84.5238 211.046 84.7545C211.33 84.9852 211.693 85.0967 212.058 85.0654C212.288 85.0144 212.499 84.8995 212.667 84.7339C212.835 84.5682 212.953 84.3586 213.007 84.129C213.061 83.8995 213.05 83.6593 212.973 83.436C212.897 83.2128 212.76 83.0156 212.577 82.867C212.393 82.7184 212.172 82.6245 211.938 82.596C211.704 82.5676 211.466 82.6057 211.253 82.7061C211.039 82.8065 210.859 82.965 210.731 83.1635C210.604 83.362 210.535 83.5924 210.533 83.8283Z" fill="#DB614D"/>
<path d="M224.031 81.964C224.033 82.2891 224.135 82.6056 224.325 82.8699C224.514 83.1341 224.781 83.333 225.088 83.439C225.395 83.5449 225.728 83.5528 226.04 83.4614C226.352 83.37 226.628 83.1839 226.829 82.9288C227.031 82.6737 227.148 82.3623 227.165 82.0377C227.181 81.7131 227.097 81.3913 226.923 81.1168C226.748 80.8424 226.493 80.6289 226.192 80.5059C225.891 80.3829 225.56 80.3564 225.243 80.4302C224.88 80.4748 224.549 80.6609 224.322 80.9481C224.095 81.2352 223.991 81.6003 224.031 81.964Z" fill="#DB614D"/>
<path d="M212.371 76.7017C212.305 76.6977 212.241 76.6774 212.185 76.6424C212.115 76.5913 212.067 76.5155 212.052 76.4304C212.036 76.3454 212.053 76.2575 212.1 76.1848C212.801 75.3077 213.81 74.7316 214.922 74.5748C214.965 74.5676 215.009 74.5692 215.051 74.5795C215.094 74.5898 215.133 74.6086 215.168 74.6348C215.203 74.6609 215.232 74.6938 215.254 74.7316C215.276 74.7694 215.29 74.8111 215.295 74.8544C215.307 74.9409 215.284 75.0287 215.232 75.0985C215.18 75.1684 215.102 75.2147 215.015 75.2273C214.094 75.3689 213.254 75.8383 212.651 76.5492C212.621 76.5961 212.58 76.6347 212.531 76.6614C212.482 76.688 212.427 76.7019 212.371 76.7017Z" fill="#1A4850"/>
<path d="M224.709 74.6425C224.635 74.6461 224.563 74.6219 224.506 74.5748C223.709 74.0912 222.762 73.9163 221.845 74.0833C221.802 74.0919 221.758 74.0919 221.715 74.0833C221.672 74.0747 221.632 74.0577 221.595 74.0333C221.559 74.0089 221.528 73.9775 221.504 73.941C221.48 73.9045 221.463 73.8635 221.455 73.8206C221.44 73.7342 221.459 73.6454 221.508 73.5728C221.557 73.5001 221.632 73.4492 221.718 73.4308C222.82 73.2309 223.957 73.4516 224.904 74.0494C224.974 74.1031 225.02 74.1818 225.032 74.2687C225.045 74.3557 225.023 74.4441 224.972 74.5154C224.941 74.5553 224.901 74.5875 224.855 74.6095C224.81 74.6316 224.76 74.6429 224.709 74.6425Z" fill="#1A4850"/>
<path d="M213.566 80.0659C213.702 80.9132 214.176 81.4725 214.625 81.3963C215.074 81.32 215.329 80.6082 215.193 79.7947C215.058 78.9812 214.591 78.388 214.142 78.4643C213.693 78.5406 213.431 79.2524 213.566 80.0659Z" fill="#1A4850"/>
<path d="M222.286 78.6253C222.421 79.4727 222.896 80.032 223.345 79.9642C223.794 79.8964 224.057 79.1676 223.921 78.3541C223.786 77.5406 223.311 76.9475 222.862 77.0237C222.413 77.1 222.167 77.8118 222.286 78.6253Z" fill="#1A4850"/>
<path d="M224.709 85.9891C224.709 85.9891 219.049 87.5144 215.905 86.9043C215.905 86.9043 218.074 89.6413 221.176 88.8533C224.277 88.0652 224.709 85.9891 224.709 85.9891Z" fill="#1A4850"/>
<path d="M225.006 70.2023C225.006 70.2023 217.634 75.5408 208.38 75.9475L208.643 84.1842C208.643 84.1842 200.016 68.2956 217.117 65.4823C234.217 62.669 229.209 80.4133 229.209 80.4133C229.209 80.4133 228.641 72.7614 225.006 70.2023Z" fill="#0E3944"/>
<path d="M218.972 83.7774L218.93 83.0656C218.93 83.0656 219.922 82.9893 220.176 82.3792C220.286 82.125 219.862 81.3284 219.489 80.6251C218.85 79.5114 218.371 78.3133 218.066 77.0661L218.769 76.9305C219.06 78.1183 219.516 79.2594 220.125 80.3201C220.676 81.3624 221.066 82.1165 220.837 82.6843C220.641 83.007 220.368 83.2759 220.043 83.4668C219.717 83.6576 219.35 83.7644 218.972 83.7774Z" fill="#DB614D"/>
<path d="M229.006 70.2277C216.6 64.8468 204.897 75.9984 204.897 75.9984C204.897 75.9984 203.533 66.9568 205.923 64.8468C206.541 64.2943 207.208 63.798 207.914 63.3638C213.388 59.915 220.667 59.9743 224.014 61.1606C224.573 61.3353 225.09 61.6238 225.531 62.008C227.497 64.0587 229.006 70.2277 229.006 70.2277Z" fill="#CE364C"/>
<path d="M227.497 68.2109C220.482 67.1867 213.333 68.7369 207.372 72.5749C207.372 72.5749 206.753 66.7449 207.914 63.3638C213.388 59.915 220.667 59.9743 224.014 61.1606C225.955 63.3808 227.497 68.2109 227.497 68.2109Z" fill="#CFD8DC"/>
<path d="M205.923 74.9392C205.923 74.9392 207.575 67.9228 209.804 65.9484C213.498 62.669 223.896 61.5335 229.361 63.5079C234.827 65.4823 229.361 71.4564 229.361 71.4564C229.361 71.4564 220.65 65.2196 205.923 74.9392Z" fill="#A02E44"/>
<path d="M222.006 121.537C225.002 125.85 228.936 129.428 233.514 132.002C233.514 132.002 242.581 124.13 254.334 124.842C254.334 124.842 244.589 142.425 236.225 144.374C231.827 145.391 215.888 134.866 215.888 134.866C215.888 134.866 219.1 123.672 222.006 121.537Z" fill="#FF8B66"/>
<path d="M206.329 109.58C210.227 103.242 219.21 112.614 222.269 119.308C225.328 126.003 227.565 127.426 227.565 127.426C227.565 127.426 218.583 131.172 218.65 137.9C218.65 137.9 197.83 123.418 206.329 109.58Z" fill="#ADBEC4"/>
<path d="M233.514 129.104C233.514 129.104 238.979 123.74 256.961 116.741L254.639 109.436C256.707 106.716 260.494 106.716 260.494 106.716C260.494 106.716 269.714 119.732 268.121 123.613C267.138 126.045 247.919 128.596 233.514 129.104Z" fill="#EF6E4B"/>
<path d="M253.207 118.495C253.376 117.88 253.664 117.304 254.054 116.8C254.724 115.868 254.537 114.156 254.775 113.631C255.012 113.106 256.469 110.936 257.368 110.512C258.266 110.089 259.537 109.402 259.8 110.597C260.062 111.792 258.105 111.445 257.257 113.139C258.353 112.796 259.512 112.706 260.647 112.877C262.164 113.241 262.588 114.622 260.723 114.571C259.533 114.667 258.377 115.016 257.334 115.597C257.334 115.597 259.283 115.893 258.969 116.783C258.486 118.046 256.113 117.283 253.207 118.495Z" fill="#FF8B66"/>
<path d="M120.201 142.984C121.811 147.103 128.395 154.161 128.395 154.161C128.395 154.161 144.496 144.518 151.902 148.577C159.308 152.636 165.223 155.102 170.036 153.339C174.849 151.577 154.215 114.038 154.215 114.038L127.455 103.827C127.455 103.827 126.87 110.606 123.811 111.792C120.752 112.978 117.489 124.172 117.71 126.291C117.93 128.409 120.201 142.984 120.201 142.984Z" fill="#3E6575"/>
<path d="M150.309 154.407C150.309 154.407 143.411 167.965 129.124 185.252C129.124 185.252 127.666 205.852 89.9915 238.265L86.0512 235.163C86.0512 235.163 108.482 200.014 112.973 189.243C117.464 178.473 110.49 168.592 131.132 141.34L150.309 154.407Z" fill="#EF6E4B"/>
<path d="M128.353 130.469C122.421 141.849 120.413 156.39 120.413 156.39L117.71 163.22C124.227 166.552 131.191 168.926 138.386 170.27L142.826 158.534L128.353 130.469Z" fill="#662C33"/>
<path d="M159.333 153.339C159.333 153.339 162.274 168.237 161.791 190.625C161.791 190.625 173.375 207.716 163.816 256.484H158.791C158.791 256.484 154.698 214.962 151.563 203.751C148.427 192.54 136.844 189.057 136.217 154.873L159.333 153.339Z" fill="#FF8B66"/>
<path d="M162.274 169.33C162.274 169.33 152.834 171.024 136.208 170.245L135.945 168.372L135.878 167.889L134.183 155.771C132.939 154.147 131.853 152.407 130.937 150.577C130.742 150.204 130.556 149.814 130.361 149.416C128.124 144.645 126.124 137.705 128.37 130.477L131.878 130.638H132.369L144.114 131.172H144.606L148.444 131.418H149.046L151.546 131.528C151.546 131.528 164.257 142.976 161.994 164.152L162.155 167.093V167.576L162.274 169.33Z" fill="#8B383E"/>
<path d="M132.344 130.663C132.014 131.629 129.802 138.815 130.912 150.577C130.717 150.204 130.531 149.814 130.336 149.416C129.488 138.663 131.429 131.951 131.853 130.638C131.912 130.477 131.937 130.401 131.937 130.392L132.378 130.553C132.378 130.553 132.344 130.57 132.344 130.663Z" fill="#662C33"/>
<path d="M162.181 167.593C158.791 168.44 153.173 168.677 147.775 168.677C142.945 168.677 138.369 168.482 135.911 168.372L135.844 167.889C140.081 168.101 151.19 168.533 158.359 167.754L157.901 160.178C157.909 152.677 156.149 145.281 152.766 138.586C146.233 137.4 144.436 132.562 144.055 131.197C144.02 131.08 143.992 130.961 143.97 130.841L144.428 130.765C144.459 130.922 144.499 131.078 144.546 131.231C145.121 132.98 146.166 134.538 147.566 135.734C148.966 136.929 150.669 137.717 152.486 138.01C151.324 135.704 149.972 133.499 148.444 131.418C148.232 131.129 148.105 130.968 148.097 130.96L148.453 130.663C148.453 130.663 148.682 130.943 149.046 131.443C151.224 134.409 158.596 145.552 158.367 160.169L158.833 167.703C159.941 167.582 161.04 167.387 162.121 167.118L162.181 167.593Z" fill="#662C33"/>
<path d="M138.14 79.4303C134.395 77.3626 107.414 87.9465 107.414 87.9465C107.414 87.9465 103.423 95.0646 105.905 97.861C108.388 100.657 117.227 99.4202 119.93 97.861C122.633 96.3018 129.802 95.1154 129.802 95.1154L138.14 79.4303Z" fill="#8BBDDB"/>
<path d="M162.003 56.9661C163.803 57.7795 165.413 58.9626 166.727 60.4386C168.041 61.9145 169.03 63.6503 169.629 65.5331C171.671 71.9563 165.579 88.2177 167.68 95.6917C169.782 103.166 169.46 117.275 162.884 120.266C156.308 123.257 142.809 117.91 139.911 109.758C137.013 101.606 138.276 70.7022 143.818 60.237C149.36 49.7717 160.664 54.9832 162.003 56.9661Z" fill="#F24052"/>
<path d="M155.596 84.6671C157.062 86.2518 160.842 83.43 160.842 83.43C160.842 83.43 160.765 97.4458 156.698 98.5135C152.63 99.5812 142.241 87.4974 142.674 84.1842C143.106 80.8709 152.334 81.159 155.596 84.6671Z" fill="#8BBDDB"/>
<path d="M139.894 81.1674C143.238 83.6916 147.093 85.4531 151.19 86.328C158.367 88.0228 162.257 84.6333 165.926 89.2431C171.442 96.1916 162.477 108.996 157.757 115.631C156.003 118.105 152.291 124.952 151.546 131.545C151.546 131.545 139.089 135.163 128.353 130.468L127.548 115.215C127.548 115.215 120.777 94.607 139.894 81.1674Z" fill="#0E3944"/>
<path d="M152.775 96.0306C152.775 96.0306 158.461 82.4724 160.113 81.625C161.765 80.7776 165.934 82.8368 166.773 84.6926C167.612 86.5484 166.773 90.6243 166.773 90.6243C166.773 90.6243 162.291 85.4468 152.775 96.0306Z" fill="#8BBDDB"/>
<path d="M180.027 153.34C177.434 158.636 171.087 160.161 171.087 160.161C171.087 160.161 170.604 159.424 169.799 158.11C169.714 157.975 169.621 157.822 169.536 157.67C164.536 149.577 149.266 123.655 149.571 110.174C149.633 105.502 150.625 100.889 152.489 96.604C154.353 92.3194 157.051 88.4488 160.426 85.218C165.765 86.4891 167.443 87.9466 167.443 87.9466C168.529 94.63 168.581 101.441 167.595 108.14C165.951 119.156 162.96 122.071 164.46 122.901C165.96 123.732 164.46 125.367 164.46 125.367C164.46 125.367 173.315 137.697 174.976 141.535C176.044 144.078 177.866 148.314 179.01 150.95L179.23 151.492L180.027 153.34Z" fill="#6097B2"/>
<path d="M164.646 87.9466C164.646 87.9466 158.308 92.6496 162.003 99.81L179.569 117.995C169.926 128.274 168.968 132.494 162.003 137.231L164.646 141.324C164.646 141.324 189.06 122.562 189.094 117.995C189.119 116.063 174.188 92.4377 164.646 87.9466Z" fill="#FF8B66"/>
<path d="M161.613 137.248C159.779 137.452 157.958 137.752 156.156 138.146C154.046 138.671 151.241 139.197 151.148 139.637C151.054 140.078 155.808 139.637 155.808 139.637C155.808 139.637 151.944 141.23 151.851 141.84C151.758 142.451 156.774 141.4 156.774 141.4C156.774 141.4 153.613 143.332 153.783 143.857C153.952 144.383 157.859 143.069 157.859 143.069C157.481 144.033 156.986 144.947 156.384 145.789C156.384 145.789 157.139 146.204 158.672 144.501C160.206 142.798 162.647 143.349 164.604 141.84C166.562 140.332 163.375 137.019 161.613 137.248Z" fill="#FF8B66"/>
<path d="M143.665 83.4215C143.665 83.4215 138.843 86.5399 135.793 94.0647C132.742 101.59 123.141 115.758 120.887 119.41C118.633 123.062 120.201 142.984 120.201 142.984C120.201 142.984 117.379 130.909 116.125 126.206C114.871 121.503 120.175 109.885 120.972 109.258C121.769 108.631 125.853 109.767 125.065 105.021C124.277 100.276 135.234 79.9641 138.14 79.3964C138.14 79.4303 142.818 80.3031 143.665 83.4215Z" fill="#6097B2"/>
<path d="M128.751 84.4384C128.667 84.6051 128.567 84.7639 128.454 84.9129C127.587 86.0272 126.531 86.9821 125.336 87.7347C125.336 87.7347 121.658 92.8868 121.616 93.48C121.574 94.0732 115.227 98.5643 112.405 98.505C112.065 98.516 111.733 98.4014 111.473 98.183C109.778 96.6069 117.176 83.3368 118.803 80.4811C118.904 80.2947 118.989 80.1506 119.048 80.0574L119.116 79.9303C119.116 79.9303 117.82 75.1002 123.235 75.9984C127.743 76.7441 128.632 80.3286 129.107 82.7267C129.19 83.3212 129.064 83.9262 128.751 84.4384Z" fill="#6097B2"/>
<path d="M109.829 89.4549C113.549 84.557 126.65 75.0493 133.556 72.2614L135.251 75.4645C135.251 75.4645 121.938 87.1839 118.786 92.2004C115.634 97.217 111.769 99.2931 108.066 97.6152C104.363 95.9374 109.041 90.4803 109.829 89.4549Z" fill="#FF8B66"/>
<path d="M127.455 83.43L126.743 84.2774L126.387 84.6926L125.226 86.023C125.226 86.023 122.285 89.582 122.396 91.0141C122.48 92.0394 116.828 96.6323 112.405 98.5389C110.608 99.3185 109.015 99.6575 108.083 99.1236C104.88 97.2763 105.6 91.7344 107.414 87.9804C108.99 84.7095 115.981 80.4811 117.777 79.4473L118.193 79.2015L118.862 76.6085C118.862 76.6085 121.302 75.1425 123.218 76.0408C123.218 76.0408 118.981 76.2187 119.684 77.8711C120.387 79.5235 126.277 83.3791 127.455 83.43Z" fill="#8BBDDB"/>
<path d="M142.826 69.8548C138.589 71.6089 139.174 75.4645 135.267 75.4645C132.852 75.4645 132.53 72.702 132.53 72.702C133.572 70.0384 134.226 67.2388 134.471 64.3892C134.632 62.4741 135.267 63.2113 135.267 63.2113C135.267 63.0333 135.267 62.8639 135.267 62.6944C135.208 61.4063 134.979 60.4657 135.827 60.9996C136.674 61.5335 137.115 65.2365 137.115 65.2365C137.903 59.9065 136.725 59.1184 137.649 59.5929C138.911 60.2285 138.92 64.9315 138.92 65.0755C139.937 61.9826 139.665 60.2115 140.369 60.9149C141.072 61.6182 140.013 67.3126 139.589 69.3887C139.496 69.8548 139.428 70.1514 139.428 70.1514C142.784 68.5668 142.826 69.8548 142.826 69.8548Z" fill="#FF8B66"/>
<path d="M139.572 69.465C139.479 69.9311 139.411 70.2277 139.411 70.2277C138.866 70.2238 138.329 70.3634 137.854 70.6326C137.38 70.9019 136.985 71.2912 136.708 71.7614C136.826 71.0967 137.182 70.4976 137.709 70.0752C138.236 69.6529 138.898 69.4361 139.572 69.465Z" fill="#EF6E4B"/>
<path d="M135.505 67.0161C135.505 66.5669 135.725 63.9824 135.267 63.1943C135.267 63.0164 135.267 62.8469 135.267 62.6774C136.234 62.9062 135.606 66.4907 135.505 67.0161Z" fill="#EF6E4B"/>
<path d="M138.149 89.4803C138.149 89.4803 141.03 81.6759 141.945 79.9303C142.86 78.1847 147.631 78.4897 151.266 79.1591C154.901 79.8286 155.613 84.6672 155.613 84.6672C155.613 84.6672 144.606 79.4812 138.149 89.4803Z" fill="#8BBDDB"/>
<path d="M156.698 74.1172C154.583 78.2895 153.425 82.8807 153.308 87.5567C153.308 87.5567 147.707 91.3615 145.682 86.5907C147.049 81.8225 147.424 76.8244 146.783 71.9055C146.097 66.2534 156.698 74.1172 156.698 74.1172Z" fill="#EF6E4B"/>
<path d="M145.69 65.3213C145.69 65.3213 144.665 61.669 142.843 64.2366C140.725 67.211 142.843 70.1006 144.004 69.4057C145.165 68.7108 145.69 65.3213 145.69 65.3213Z" fill="#FF8B66"/>
<path d="M162.003 74.6426C162.003 74.6426 165.663 73.6257 164.409 76.5153C162.969 79.8625 159.376 79.5235 159.384 78.2101C159.393 76.8966 162.003 74.6426 162.003 74.6426Z" fill="#FF8B66"/>
<path d="M147.182 81.2013C141.996 78.2778 140.97 73.2444 146.699 63.0672C149.656 57.8219 154.139 56.1102 159.952 59.3811C165.765 62.652 166.401 67.2533 163.452 72.4987C157.291 83.43 152.546 84.2265 147.182 81.2013Z" fill="#FF8B66"/>
<path d="M159.689 75.1595C159.655 75.4508 159.531 75.7242 159.334 75.9419C159.137 76.1596 158.878 76.3108 158.592 76.3745C158.305 76.4383 158.006 76.4115 157.736 76.2979C157.465 76.1843 157.237 75.9894 157.082 75.7402C156.927 75.4911 156.853 75.1999 156.871 74.9071C156.889 74.6143 156.998 74.3343 157.182 74.1058C157.365 73.8773 157.616 73.7116 157.898 73.6317C158.18 73.5517 158.481 73.5615 158.757 73.6596C159.078 73.7381 159.355 73.9391 159.529 74.2195C159.703 74.4998 159.761 74.8372 159.689 75.1595Z" fill="#DB614D"/>
<path d="M148.851 69.4311C148.746 69.7041 148.559 69.9379 148.316 70.1004C148.073 70.2628 147.785 70.3459 147.493 70.3382C147.201 70.3305 146.918 70.2324 146.683 70.0574C146.449 69.8824 146.275 69.6391 146.184 69.3609C146.094 69.0828 146.092 68.7835 146.179 68.5041C146.265 68.2248 146.436 67.9792 146.668 67.8011C146.9 67.623 147.182 67.5211 147.474 67.5095C147.766 67.4979 148.055 67.5772 148.3 67.7364C148.598 67.8886 148.822 68.1523 148.926 68.47C149.029 68.7876 149.002 69.1332 148.851 69.4311Z" fill="#DB614D"/>
<path d="M160.426 68.5837C160.361 68.5827 160.298 68.5607 160.246 68.5211C160.194 68.4814 160.156 68.4261 160.138 68.3634C159.857 67.5727 159.292 66.9145 158.554 66.5161C158.483 66.4802 158.429 66.4175 158.405 66.3421C158.38 66.2666 158.386 66.1844 158.422 66.1136C158.458 66.0428 158.521 65.9892 158.596 65.9646C158.672 65.9399 158.754 65.9463 158.825 65.9823C159.714 66.4589 160.39 67.2554 160.714 68.2109C160.725 68.2487 160.727 68.2882 160.722 68.3271C160.717 68.3659 160.704 68.4034 160.685 68.4372C160.665 68.4711 160.639 68.5008 160.607 68.5245C160.576 68.5482 160.541 68.5654 160.503 68.5753L160.426 68.5837Z" fill="#1A4850"/>
<path d="M153.3 63.5079C153.246 63.5098 153.193 63.495 153.147 63.4655C152.419 63.0477 151.565 62.9063 150.741 63.0672C150.703 63.0805 150.663 63.086 150.623 63.0833C150.583 63.0806 150.544 63.0698 150.508 63.0516C150.472 63.0334 150.44 63.0081 150.415 62.9772C150.389 62.9464 150.37 62.9107 150.358 62.8722C150.347 62.8338 150.343 62.7934 150.348 62.7535C150.352 62.7136 150.365 62.6751 150.385 62.6403C150.405 62.6054 150.432 62.575 150.464 62.5508C150.496 62.5266 150.532 62.5091 150.571 62.4995C151.555 62.2804 152.585 62.444 153.452 62.9571C153.52 62.9992 153.569 63.0662 153.588 63.1439C153.607 63.2215 153.595 63.3036 153.554 63.3723C153.526 63.4136 153.488 63.4474 153.443 63.471C153.399 63.4946 153.35 63.5072 153.3 63.5079Z" fill="#1A4850"/>
<path d="M158.283 71.0497C157.918 71.6937 157.333 72.0496 156.978 71.8462C156.622 71.6428 156.622 70.9988 156.978 70.3209C157.333 69.643 157.927 69.3125 158.283 69.5159C158.638 69.7193 158.613 70.4056 158.283 71.0497Z" fill="#1A4850"/>
<path d="M150.987 67.1432C150.622 67.7872 150.037 68.1516 149.682 67.9906C149.326 67.8296 149.326 67.1008 149.682 66.4568C150.037 65.8128 150.631 65.4484 150.987 65.6094C151.342 65.7704 151.368 66.4992 150.987 67.1432Z" fill="#1A4850"/>
<path d="M148.487 73.7952C148.487 73.7952 151.461 76.0662 153.613 76.1424C153.613 76.1424 151.325 78.0067 149.682 76.7949C149.215 76.4631 148.854 76.0034 148.642 75.4713C148.43 74.9392 148.376 74.3571 148.487 73.7952Z" fill="#1A4850"/>
<path d="M156.715 69.7447C156.715 69.7447 158.088 68.4227 158.647 68.8973C159.206 69.3718 158.91 70.9903 158.91 70.9903H160.113L159.121 70.592C159.121 70.592 159.435 68.8973 158.825 68.5583C157.944 68.0753 156.715 69.7447 156.715 69.7447Z" fill="#1A4850"/>
<path d="M151.571 67.1008C151.571 67.1008 151.986 65.245 151.3 65.0078C150.614 64.7705 149.376 65.8552 149.376 65.8552L148.732 64.8468L149.58 65.4908C149.58 65.4908 150.859 64.3383 151.478 64.6858C152.359 65.1857 151.571 67.1008 151.571 67.1008Z" fill="#1A4850"/>
<path d="M161.333 61.5589C161.094 61.2109 160.783 60.9178 160.422 60.6992C160.061 60.4805 159.657 60.3414 159.238 60.2909C158.819 60.2403 158.393 60.2797 157.99 60.4063C157.588 60.5329 157.216 60.7438 156.901 61.025C154.359 63.0757 148.538 66.3636 145.69 65.262C142.843 64.1604 151.927 52.0343 159.816 55.5848C167.705 59.1354 166.994 70.7191 163.706 74.3968C160.418 78.0745 162.011 74.651 162.011 74.651C162.141 71.717 162.584 68.8052 163.333 65.9653C164.392 62.5249 161.333 61.5589 161.333 61.5589Z" fill="#F24052"/>
<path d="M152.588 72.5834C152.437 72.5798 152.286 72.5599 152.139 72.5241L152.291 71.897C152.455 71.9646 152.638 71.971 152.806 71.915C152.974 71.8589 153.116 71.7443 153.207 71.592C153.286 71.465 153.329 71.3182 153.329 71.1683C153.329 71.0184 153.286 70.8715 153.207 70.7446C153.122 70.6598 152.986 70.6683 152.783 70.7446L152.486 70.1684C152.666 70.0459 152.881 69.9891 153.098 70.0076C153.314 70.0261 153.517 70.1188 153.673 70.27C153.846 70.4998 153.945 70.7762 153.959 71.0633C153.972 71.3505 153.899 71.6351 153.749 71.8801C153.637 72.0913 153.47 72.2683 153.266 72.3921C153.061 72.516 152.827 72.5821 152.588 72.5834Z" fill="#DB614D"/>
<path d="M190.61 117.292C190.297 121.859 179.01 136.714 177.128 137.239C176.606 137.398 176.114 137.641 175.671 137.959C175.468 138.103 175.273 138.256 175.086 138.409C174.402 138.967 173.773 139.588 173.205 140.264C169.909 140.052 160.664 135.773 163.638 134.833C163.849 134.756 164.049 134.651 164.231 134.519C164.365 134.429 164.492 134.33 164.613 134.222C168.112 131.282 174.925 119.376 174.976 118.469C175.027 117.563 176.188 117.292 176.188 117.292C176.188 117.292 169.756 107.86 166.019 106.716C162.282 105.572 160.409 101.073 160.409 101.073C156.732 85.5061 167.426 87.9466 167.426 87.9466C175.332 92.6411 190.915 112.724 190.61 117.292Z" fill="#8BBDDB"/>
<path d="M175.671 137.959C175.468 138.103 175.273 138.256 175.086 138.409C171.202 138.031 167.471 136.695 164.231 134.519C164.365 134.429 164.492 134.33 164.613 134.222C167.915 136.4 171.724 137.687 175.671 137.959Z" fill="#3E6575"/>
<path d="M128.751 84.4384C128.667 84.605 128.567 84.7638 128.454 84.9129C127.76 84.882 127.068 84.797 126.387 84.6587C123.5 84.0184 120.854 82.5694 118.76 80.4811C118.376 80.1026 118.037 79.7467 117.744 79.4134L118.159 79.1676C118.404 79.4472 118.684 79.7438 119.006 80.0574C121.099 82.1896 123.781 83.6473 126.709 84.2435C127.383 84.3673 128.066 84.4325 128.751 84.4384Z" fill="#3E6575"/>
<path d="M179.23 151.492C178.257 153.234 176.904 154.734 175.271 155.88C173.638 157.026 171.767 157.788 169.799 158.11C169.714 157.975 169.621 157.822 169.536 157.67C171.53 157.367 173.425 156.601 175.07 155.434C176.715 154.267 178.064 152.732 179.01 150.95L179.23 151.492Z" fill="#3E6575"/>
<path d="M93.6098 237.095C92.6783 238.088 91.8728 239.193 91.2118 240.383C89.9915 242.51 91.3304 244.468 85.4156 249.391C85.4156 249.391 73.4759 242.4 68.0865 233.418C68.1341 232.668 68.4232 231.954 68.9105 231.383C69.3978 230.812 70.0571 230.414 70.7897 230.248C72.1879 229.926 76.0435 231.731 79.7551 232.435C80.2734 232.534 80.7967 232.605 81.3227 232.647C81.9536 232.714 82.59 232.714 83.2209 232.647C83.7712 232.597 84.311 232.466 84.8224 232.257C85.5177 231.961 86.1325 231.504 86.6158 230.923C87.0992 230.343 87.4372 229.655 87.6019 228.918C87.6019 228.918 90.7711 230.723 88.6527 233.782C88.6611 233.774 92.4235 232.13 93.6098 237.095Z" fill="#CFD8DC"/>
<path d="M85.4156 249.391C85.4156 249.391 73.4759 242.4 68.0865 233.418C68.0865 233.418 70.0864 232.994 71.7473 235.96C73.4081 238.926 86.3817 245.713 85.4156 249.391Z" fill="#ADBEC4"/>
<path d="M85.4665 235.265C84.492 236.799 84.5089 233.96 83.2209 232.638C83.7712 232.589 84.311 232.457 84.8224 232.248C85.4071 232.875 86.2206 234.07 85.4665 235.265Z" fill="#ADBEC4"/>
<path d="M81.7125 235.35C80.6872 236.316 80.3567 233.782 79.7551 232.435C80.2734 232.534 80.7967 232.605 81.3227 232.647C81.9244 233.468 82.4921 234.604 81.7125 235.35Z" fill="#ADBEC4"/>
<path d="M167.087 268.118H150.139C149.724 266.498 149.724 264.799 150.139 263.178C150.436 262.059 152.19 261.009 153.817 259.551C154.278 259.148 154.708 258.712 155.105 258.246C155.428 257.866 155.712 257.455 155.952 257.017C156.277 256.471 156.511 255.876 156.647 255.255C156.935 253.703 156.74 252.1 156.088 250.662C156.088 250.662 161.833 249.459 163.884 252.594C163.884 252.594 164.079 251.145 165.909 252.111C165.763 253.892 165.794 255.683 166.002 257.458C166.4 259.882 168.672 260.593 167.087 268.118Z" fill="#CFD8DC"/>
<path d="M162.664 257.95C162.594 258.03 162.508 258.094 162.412 258.138C162.315 258.182 162.21 258.204 162.104 258.204C161.924 258.202 161.749 258.143 161.604 258.034C160.821 257.424 159.902 257.013 158.925 256.836C157.948 256.659 156.942 256.721 155.995 257.017C156.319 256.471 156.554 255.876 156.689 255.255C157.825 254.84 159.943 254.594 162.57 256.839C162.651 256.905 162.718 256.986 162.767 257.078C162.816 257.17 162.845 257.271 162.854 257.375C162.863 257.478 162.85 257.583 162.818 257.682C162.785 257.78 162.732 257.872 162.664 257.95Z" fill="#ADBEC4"/>
<path d="M161.248 260.746L161.155 260.89C161.047 261.058 160.879 261.178 160.685 261.225C160.491 261.272 160.286 261.243 160.113 261.144C158.969 260.466 156.393 259.187 153.851 259.551C154.311 259.148 154.742 258.712 155.139 258.246C156.174 258.01 157.25 258.021 158.28 258.277C159.31 258.533 160.266 259.027 161.07 259.721C161.218 259.842 161.317 260.012 161.35 260.2C161.383 260.388 161.347 260.582 161.248 260.746Z" fill="#ADBEC4"/>
</svg>
